<svg xmlns="http://www.w3.org/2000/svg" viewBox="0 0 606 606" width="606" height="606"><g transform="translate(0.000000,606.000000) scale(0.100000,-0.100000)"
fill="#F37021" stroke="none">
<path d="M2810 6044 c-19 -2 -82 -9 -140 -15 -342 -36 -720 -154 -1052 -327
-49 -25 -88 -49 -88 -54 0 -4 -6 -8 -13 -8 -27 0 -308 -190 -402 -271 -165
-143 -305 -282 -412 -409 -81 -97 -223 -300 -223 -319 0 -6 -4 -11 -9 -11 -4
0 -19 -21 -32 -47 -13 -27 -27 -50 -30 -53 -12 -9 -124 -233 -163 -324 -99
-232 -178 -530 -218 -821 -17 -120 -17 -601 0 -720 59 -414 178 -776 365
-1110 299 -534 777 -985 1322 -1245 150 -72 350 -150 383 -150 10 0 22 -4 28
-9 14 -15 268 -78 405 -100 390 -65 826 -50 1199 41 365 88 666 220 976 425
340 226 616 503 851 858 90 136 197 335 243 450 13 33 27 65 31 70 16 21 109
316 138 435 61 252 75 385 75 700 0 283 -3 322 -43 555 -69 392 -262 847 -505
1190 -181 256 -422 502 -670 684 -212 155 -379 250 -644 365 -46 20 -89 36
-96 36 -7 0 -27 7 -43 15 -82 41 -372 114 -578 145 -106 16 -199 22 -380 25
-132 2 -256 1 -275 -1z m-220 -1439 l0 -205 -295 0 c-162 0 -295 -3 -295 -7 0
-5 163 -169 362 -366 l363 -357 -160 -155 c-88 -85 -165 -155 -170 -155 -6 0
-165 155 -354 344 -190 190 -348 343 -353 340 -4 -3 -8 -133 -8 -290 l0 -284
-235 0 -235 0 0 670 0 670 690 0 690 0 0 -205z m2270 -465 l0 -670 -220 0
-220 0 0 296 c0 171 -4 294 -9 292 -14 -5 -205 -189 -481 -464 -141 -140 -262
-254 -269 -254 -14 0 -284 271 -301 302 -8 14 56 82 355 379 201 200 365 367
365 371 0 4 -130 8 -290 8 l-290 0 0 205 0 205 680 0 680 0 0 -670z m-1048
-1532 c79 -79 246 -243 370 -365 123 -123 228 -220 231 -216 4 3 7 129 7 280
l0 273 220 0 220 0 0 -640 0 -640 -680 0 -680 0 0 195 0 195 253 1 c138 1 262
0 274 0 11 -1 24 2 27 7 3 5 -157 168 -354 362 -198 194 -360 356 -360 359 1
8 313 331 321 331 3 0 71 -64 151 -142z m-1212 -23 c47 -44 100 -92 118 -108
17 -15 32 -31 32 -36 0 -4 -53 -59 -117 -122 -352 -343 -621 -614 -617 -621 3
-4 133 -8 290 -8 l284 0 0 -195 0 -195 -690 0 -690 0 0 630 c0 347 0 633 0
638 0 4 106 8 235 10 l235 2 0 -290 c0 -159 3 -290 8 -290 4 0 173 167 377
370 l370 370 40 -38 c22 -21 78 -73 125 -117z"/>
</g><g transform="translate(0.000000,606.000000) scale(0.100000,-0.100000)"
fill="#000000" stroke="none">
<path d="M2765 6051 c-27 -3 94 -6 270 -6 176 0 295 3 265 7 -68 8 -466 7
-535 -1z"/>
<path d="M2590 6030 c-34 -7 -34 -7 -5 -8 17 0 53 3 80 8 l50 7 -45 0 c-25 0
-61 -3 -80 -7z"/>
<path d="M3365 6035 c6 -2 62 -11 125 -20 127 -18 281 -52 406 -90 98 -30 117
-31 50 -4 -97 39 -480 120 -561 118 -16 0 -25 -2 -20 -4z"/>
<path d="M2394 5996 c-109 -23 -258 -66 -385 -111 -37 -13 -70 -21 -73 -18 -3
4 -6 1 -6 -5 0 -7 -5 -12 -12 -12 -18 0 -97 -36 -293 -135 -99 -49 -183 -89
-187 -87 -5 1 -8 -2 -8 -7 0 -5 -56 -48 -123 -95 -298 -208 -541 -447 -747
-737 -45 -63 -88 -123 -97 -133 -18 -22 -200 -379 -230 -451 -75 -181 -174
-510 -172 -571 0 -10 15 40 34 111 41 159 102 345 151 462 39 90 151 314 163
323 3 3 17 26 30 53 13 26 28 47 32 47 5 0 9 5 9 11 0 19 142 222 223 319 107
127 247 266 412 409 94 81 375 271 402 271 7 0 13 4 13 8 0 11 149 88 300 155
192 84 406 149 680 206 25 5 34 9 20 9 -14 1 -75 -10 -136 -22z"/>
<path d="M4034 5880 c22 -11 45 -20 52 -20 13 0 122 -45 244 -102 502 -232
969 -652 1275 -1148 189 -307 351 -732 401 -1055 4 -27 9 -42 12 -32 8 36 -58
306 -120 492 -22 66 -61 167 -86 225 -45 101 -208 410 -222 420 -4 3 -35 48
-70 100 -34 52 -65 97 -69 100 -3 3 -22 25 -40 50 -98 127 -307 341 -441 451
-36 30 -67 56 -70 59 -43 45 -350 242 -465 298 -38 18 -72 37 -75 41 -4 7 -37
21 -50 23 -3 0 -30 12 -60 25 -61 28 -237 93 -248 93 -4 -1 11 -10 32 -20z"/>
<path d="M1210 4140 l0 -670 235 0 235 0 0 284 c0 157 4 287 8 290 5 3 163
-150 353 -340 189 -189 348 -344 354 -344 5 0 82 70 170 155 l160 155 -363
357 c-199 197 -362 361 -362 366 0 4 133 7 295 7 l295 0 0 205 0 205 -690 0
-690 0 0 -670z m1367 463 l2 -193 -300 0 c-242 0 -299 -3 -299 -13 0 -8 66
-78 148 -158 81 -79 245 -241 364 -359 l217 -215 -157 -147 -157 -147 -325
324 c-324 323 -369 365 -389 365 -7 0 -12 -90 -13 -287 l-3 -288 -209 -3
c-145 -2 -213 1 -222 9 -19 16 -21 1278 -2 1297 9 9 168 12 678 10 l665 -3 2
-192z"/>
<path d="M3500 4605 l0 -205 290 0 c160 0 290 -4 290 -8 0 -4 -164 -171 -365
-371 -299 -297 -363 -365 -355 -379 17 -31 287 -302 301 -302 7 0 128 114 269
254 276 275 467 459 481 464 5 2 9 -121 9 -292 l0 -296 220 0 220 0 0 670 0
670 -680 0 -680 0 0 -205z m1350 -465 l0 -659 -210 -1 -210 -1 0 301 c0 260
-2 301 -15 298 -15 -3 -122 -106 -523 -503 l-233 -230 -51 55 c-28 30 -94 99
-147 153 l-95 98 367 367 c202 202 367 373 367 379 0 10 -69 13 -292 15 l-293
3 -3 193 -2 192 670 0 670 -1 0 -659z"/>
<path d="M45 3565 c-3 -26 -4 -49 -2 -52 3 -3 9 16 12 42 4 25 5 48 2 51 -2 3
-8 -16 -12 -41z"/>
<path d="M29 3479 c0 -13 -4 -48 -8 -76 -4 -29 -4 -53 0 -53 8 0 23 140 15
148 -3 3 -6 -6 -7 -19z"/>
<path d="M6026 3435 c3 -38 10 -74 15 -79 8 -9 4 32 -12 109 -6 29 -7 21 -3
-30z"/>
<path d="M7 3273 c-9 -87 -7 -452 1 -518 4 -27 7 93 7 267 0 175 0 318 -1 318
-1 0 -4 -30 -7 -67z"/>
<path d="M6045 3025 c0 -176 3 -291 6 -255 9 86 9 450 1 520 -4 30 -7 -89 -7
-265z"/>
<path d="M3498 2587 c-87 -89 -158 -165 -158 -168 0 -3 162 -165 360 -359 197
-194 357 -357 354 -362 -3 -5 -16 -8 -27 -7 -12 0 -136 1 -274 0 l-253 -1 0
-195 0 -195 680 0 680 0 0 640 0 640 -220 0 -220 0 0 -273 c0 -151 -3 -277 -7
-280 -3 -4 -108 93 -231 216 -444 438 -515 507 -521 507 -3 0 -77 -73 -163
-163z m585 -267 c142 -140 265 -258 273 -263 7 -4 14 -15 14 -22 0 -8 3 -15 8
-15 4 0 17 -3 30 -6 l22 -6 0 281 0 281 210 0 210 0 0 -630 0 -630 -670 0
-670 0 0 185 0 185 285 0 c228 0 285 3 285 13 0 7 -26 38 -57 69 -192 184
-663 653 -663 659 0 4 67 76 149 161 l149 153 84 -80 c46 -44 199 -195 341
-335z"/>
<path d="M2065 2370 c-204 -203 -373 -370 -377 -370 -5 0 -8 131 -8 290 l0
290 -235 -2 c-129 -2 -235 -6 -235 -10 0 -5 0 -291 0 -638 l0 -630 690 0 690
0 0 195 0 195 -284 0 c-157 0 -287 4 -290 8 -4 7 265 278 617 621 64 63 117
118 117 122 0 5 -15 21 -32 36 -18 16 -71 64 -118 108 -47 44 -103 96 -125
117 l-40 38 -370 -370z m575 161 l95 -90 -105 -105 c-57 -57 -109 -102 -114
-99 -5 4 -6 2 -3 -4 3 -5 -23 -38 -58 -73 -36 -36 -65 -62 -65 -59 0 3 -92
-87 -205 -199 -112 -113 -202 -209 -199 -213 3 -5 132 -9 287 -9 155 0 288 -4
295 -9 10 -6 12 -48 10 -182 l-3 -174 -678 -3 -677 -2 0 630 1 630 224 0 225
0 0 -291 c0 -244 2 -290 14 -287 8 2 179 166 381 365 l368 362 56 -49 c31 -27
99 -90 151 -139z"/>
<path d="M22 2675 c0 -16 3 -50 7 -75 6 -33 9 -37 9 -15 0 17 -3 50 -7 75 -6
33 -9 37 -9 15z"/>
<path d="M6016 2573 c-10 -69 -33 -188 -52 -262 -32 -127 -117 -394 -134 -416
-3 -5 -17 -37 -30 -70 -46 -115 -153 -314 -243 -450 -317 -478 -724 -832
-1239 -1079 -250 -119 -550 -209 -858 -258 -127 -20 -181 -22 -430 -22 -219 1
-310 5 -395 18 -168 27 -190 29 -184 23 3 -4 66 -16 140 -28 174 -26 544 -37
714 -20 519 53 987 218 1405 496 62 41 117 75 121 75 5 0 9 5 9 11 0 5 6 7 13
3 6 -4 9 -4 5 0 -4 5 21 30 55 57 506 403 874 960 1041 1578 39 141 71 302 81
404 12 111 1 76 -19 -60z"/>
<path d="M41 2533 c-3 -77 92 -427 163 -603 15 -36 27 -75 28 -87 1 -12 5 -20
9 -17 3 2 14 -15 23 -39 20 -53 108 -222 165 -318 46 -79 189 -285 226 -328
265 -308 436 -465 696 -638 157 -104 521 -293 566 -293 7 0 13 -4 13 -10 0 -5
8 -10 18 -10 11 0 58 -14 106 -30 108 -38 286 -86 346 -94 25 -3 -25 12 -110
34 -85 23 -159 45 -164 50 -6 6 -18 10 -28 10 -33 0 -233 78 -383 150 -473
226 -909 606 -1199 1045 -222 336 -358 663 -446 1070 -16 72 -29 120 -29 108z"/>
</g></svg>