<svg xmlns="http://www.w3.org/2000/svg" viewBox="0 0 1598 1598" width="1598" height="1598"><g transform="translate(0.000000,1598.000000) scale(0.100000,-0.100000)"
fill="#F37021" stroke="none">
<path d="M7695 15963 c-87 -2 -389 -24 -540 -39 -175 -16 -556 -73 -695 -103
-61 -14 -89 -19 -205 -43 -55 -11 -108 -24 -117 -29 -9 -5 -27 -9 -39 -9 -12
0 -52 -8 -88 -19 -36 -10 -104 -29 -151 -41 -239 -63 -734 -232 -905 -310 -11
-5 -49 -21 -85 -36 -103 -42 -388 -173 -420 -193 -8 -5 -47 -25 -87 -45 -327
-158 -888 -510 -1198 -751 -131 -102 -243 -192 -265 -211 -14 -13 -63 -55
-110 -95 -265 -224 -574 -531 -818 -814 -284 -329 -413 -499 -646 -850 -317
-478 -572 -977 -810 -1585 -37 -95 -191 -571 -216 -670 -13 -47 -30 -114 -40
-150 -26 -98 -50 -199 -60 -255 -5 -27 -13 -68 -19 -90 -40 -171 -102 -557
-121 -765 -5 -52 -16 -176 -26 -275 -20 -220 -24 -927 -6 -1130 7 -71 17 -182
23 -245 27 -302 85 -668 149 -945 10 -44 28 -123 40 -175 20 -87 87 -332 110
-405 153 -474 222 -656 382 -1009 50 -112 227 -463 285 -566 153 -271 287
-483 467 -734 67 -92 128 -178 136 -190 31 -45 249 -315 324 -401 430 -491
815 -847 1330 -1230 87 -65 182 -132 210 -149 28 -17 53 -34 56 -37 18 -22
380 -245 580 -357 112 -63 421 -220 510 -260 25 -11 91 -41 148 -66 56 -25
104 -46 107 -46 2 0 33 -13 67 -29 146 -67 570 -214 833 -290 462 -133 950
-225 1420 -270 313 -30 418 -35 790 -34 373 0 510 7 835 39 134 13 435 56 583
83 31 6 81 15 110 20 28 6 95 19 147 31 52 11 115 25 140 30 40 8 113 27 325
84 642 174 1344 476 1950 839 83 49 171 105 198 123 26 19 50 34 53 34 24 0
536 374 696 508 50 42 126 105 167 140 157 131 436 399 621 597 127 136 223
245 216 245 -3 0 14 19 37 42 114 114 607 777 607 816 0 6 3 12 8 14 9 4 85
123 162 253 289 490 533 1021 697 1518 31 95 60 181 64 192 12 35 58 188 68
230 5 22 24 92 41 155 17 63 35 135 39 160 5 25 20 97 34 160 73 330 112 596
153 1060 23 261 23 933 0 1195 -28 322 -34 371 -72 625 -48 322 -126 675 -224
1015 -71 245 -216 660 -281 803 -16 34 -29 65 -29 67 0 4 -36 87 -112 255 -11
25 -45 95 -76 155 -30 61 -69 140 -88 176 -74 149 -358 631 -375 637 -5 2 -9
8 -9 14 0 8 -46 80 -72 113 -5 6 -29 42 -55 80 -61 93 -256 354 -363 486 -176
219 -351 412 -572 632 -973 966 -2147 1654 -3458 2025 -96 28 -205 57 -242 66
-216 51 -359 82 -473 101 -49 8 -97 17 -105 20 -19 5 -191 30 -340 49 -413 52
-846 72 -1305 59z m-2097 -4631 c91 -117 79 -117 161 -12 l71 90 166 0 c157 0
166 -1 153 -17 -18 -25 -134 -165 -220 -268 l-71 -85 -173 0 -174 0 -78 92
c-96 114 -143 172 -216 266 -7 9 25 12 156 12 l165 0 60 -78z m5049 71 c-4 -5
-87 -88 -184 -185 l-177 -178 -183 0 c-101 0 -183 2 -183 5 0 3 55 87 122 185
l121 180 245 0 c135 0 242 -3 239 -7z m-3460 -476 c5 -5 4 -2009 -1 -2014 -5
-5 -447 -5 -452 0 -3 3 -6 1544 -4 2004 0 6 7 13 17 15 22 4 435 -1 440 -5z
m770 -117 c19 -63 43 -146 53 -185 11 -38 31 -106 45 -150 14 -44 25 -84 25
-90 0 -5 17 -68 38 -140 66 -220 94 -317 109 -375 37 -142 93 -371 104 -427 6
-35 16 -63 20 -63 5 0 9 7 9 15 0 16 34 173 51 235 37 136 143 513 167 595
102 340 148 493 178 593 l35 112 182 2 c178 1 299 -1 305 -7 1 -1 -72 -225
-163 -496 -92 -272 -171 -507 -175 -524 -5 -16 -77 -230 -160 -475 -83 -245
-157 -461 -163 -480 l-12 -35 -272 -3 -271 -2 -62 192 c-33 106 -65 202 -69
213 -5 11 -13 36 -19 55 -19 62 -152 481 -197 620 -24 74 -79 243 -121 375
-42 132 -89 278 -104 325 -64 195 -73 232 -63 238 6 4 120 5 254 2 l243 -5 33
-115z m-1527 -11 l0 -131 -65 -97 c-36 -53 -98 -143 -138 -201 -139 -200 -171
-245 -245 -355 -41 -60 -85 -123 -97 -140 -97 -133 -378 -550 -379 -563 -1
-21 -47 -19 492 -21 l442 -1 0 -190 0 -190 -787 2 -788 3 -3 118 -3 119 113
161 c62 89 133 192 158 228 39 57 146 210 406 584 236 338 273 392 276 405 3
13 -58 16 -427 20 l-430 5 -3 165 c-1 91 0 175 3 188 l5 22 735 0 735 0 0
-131z m4320 -59 l0 -190 -382 0 c-211 0 -389 -4 -396 -8 -9 -7 -12 -54 -10
-203 l3 -194 373 -3 372 -2 -2 -188 -3 -187 -370 -5 -370 -5 0 -230 0 -230
413 -3 412 -2 0 -190 0 -190 -645 0 -645 0 0 1010 0 1010 625 0 625 0 0 -190z
m-2981 -2935 c-2 -2 -84 -86 -183 -185 l-179 -180 -183 0 c-101 0 -184 3 -184
6 0 3 56 88 125 188 l125 181 241 -3 c133 -1 240 -5 238 -7z m2947 -2 c-3 -5
-86 -88 -184 -185 l-177 -178 -182 0 c-101 0 -183 2 -183 5 0 3 55 86 122 185
l122 180 245 0 c134 0 241 -3 237 -7z m3493 3 c-2 -3 -85 -86 -183 -185 l-180
-181 -183 0 c-101 0 -183 3 -183 6 0 3 38 60 84 127 46 67 101 148 122 179
l39 57 244 1 c134 0 242 -2 240 -4z m-7834 -465 c102 -21 251 -67 260 -81 3
-4 1 -21 -4 -36 -5 -16 -28 -98 -52 -182 -34 -125 -45 -153 -58 -148 -9 3 -49
17 -90 31 -204 72 -414 74 -525 6 -39 -25 -58 -50 -76 -105 -36 -111 72 -209
335 -303 318 -115 499 -278 544 -491 25 -122 7 -270 -48 -387 -36 -78 -156
-204 -234 -247 -148 -82 -303 -118 -509 -118 -221 0 -418 36 -543 98 -53 26
-54 27 -35 90 10 31 30 110 45 174 16 64 31 122 35 128 5 8 26 4 71 -16 160
-67 326 -99 474 -92 81 4 105 10 160 37 86 43 115 85 115 171 0 76 -16 107
-81 159 -59 47 -114 74 -254 126 -185 68 -313 144 -401 237 -109 115 -144 205
-144 368 0 164 44 272 157 387 99 101 230 164 413 202 87 17 340 13 445 -8z
m-4240 -92 c12 -41 41 -139 64 -219 23 -80 51 -176 62 -215 45 -151 60 -204
89 -310 17 -60 35 -119 40 -130 5 -11 11 -31 13 -45 3 -14 19 -79 37 -145 17
-66 40 -158 50 -205 10 -47 24 -109 30 -138 14 -62 29 -58 41 10 21 118 70
302 180 673 39 132 79 269 89 305 10 36 42 142 70 235 29 94 55 184 59 200 19
75 2 70 269 67 l241 -3 -6 -37 c-3 -20 -9 -41 -13 -47 -5 -5 -24 -57 -43 -115
-432 -1281 -563 -1669 -585 -1737 l-27 -83 -273 0 c-209 0 -274 3 -277 13 -7
21 -125 396 -157 497 -16 52 -43 133 -58 180 -15 47 -60 186 -100 310 -39 124
-108 338 -152 475 -44 138 -94 293 -110 345 -16 52 -36 112 -44 133 -26 70
-39 66 224 69 130 2 243 0 251 -3 8 -4 24 -40 36 -80z m1961 -68 c34 -79 71
-164 82 -190 11 -25 44 -102 72 -171 29 -69 59 -141 67 -160 9 -19 18 -44 20
-54 2 -11 7 -24 11 -30 5 -6 14 -30 22 -53 7 -24 17 -43 21 -43 4 0 28 53 54
118 52 130 178 435 253 612 l49 115 256 3 c177 2 257 -1 257 -8 0 -6 -68 -131
-152 -278 -83 -147 -182 -321 -219 -387 -37 -66 -117 -208 -178 -315 l-111
-195 0 -417 0 -418 -230 0 -230 0 0 413 0 414 -56 104 c-31 57 -80 149 -109
204 -29 55 -64 120 -77 145 -14 25 -46 83 -70 130 -25 47 -98 184 -163 305
-65 121 -126 236 -136 255 -11 19 -19 38 -19 42 0 12 48 13 290 8 l234 -5 62
-144z m3394 -862 l0 -1009 -230 0 -230 0 0 1010 0 1010 218 2 c119 2 223 1
230 -1 9 -2 12 -213 12 -1012z m852 204 l3 -818 400 -5 400 -5 3 -192 2 -193
-635 0 -635 0 0 1010 0 1010 223 3 c122 1 225 3 229 5 5 1 9 -366 10 -815z
m5588 -203 l0 -1010 -230 0 -230 0 0 1009 c0 658 3 1010 10 1013 5 2 109 2
230 0 l220 -3 0 -1009z m-3400 920 c15 -47 51 -161 79 -255 29 -93 70 -228 93
-300 68 -219 95 -304 138 -445 23 -74 58 -184 77 -245 19 -60 52 -166 73 -235
21 -69 59 -191 84 -272 25 -80 46 -153 46 -162 0 -14 -28 -16 -249 -16 l-249
0 -5 28 c-4 26 -69 247 -100 342 -8 25 -21 66 -28 93 l-13 47 -288 0 -287 0
-20 -67 c-10 -38 -33 -122 -51 -188 -18 -66 -36 -131 -40 -145 -4 -14 -13 -44
-20 -67 l-13 -43 -239 0 c-131 0 -238 3 -238 8 0 4 34 117 76 252 42 135 80
260 85 278 5 17 13 47 18 65 5 17 20 68 34 112 14 44 53 170 87 280 33 110 65
211 70 225 5 14 23 72 40 130 43 145 81 270 134 440 24 80 50 164 56 188 l11
42 306 -2 306 -3 27 -85z m1460 -2 c29 -51 69 -122 90 -158 20 -36 60 -105 87
-155 28 -49 90 -159 138 -244 136 -240 355 -690 355 -730 0 -6 5 -11 11 -11 8
0 9 17 5 53 -20 164 -33 852 -26 1325 0 9 49 12 210 12 l210 0 0 -1010 0
-1010 -242 0 -243 0 -39 73 c-22 39 -117 212 -212 383 -95 171 -211 385 -259
475 -92 176 -235 473 -235 488 0 5 -6 13 -13 19 -10 8 -11 -132 -8 -714 l3
-724 -211 0 -211 0 0 1010 0 1010 269 0 269 0 52 -92z"/>
<path d="M10171 6929 c-5 -13 -32 -118 -60 -234 -28 -115 -64 -250 -79 -300
-39 -123 -55 -192 -48 -210 5 -13 35 -15 208 -13 l203 3 -1 25 c-1 14 -25 104
-54 200 -83 279 -97 329 -125 440 -15 58 -28 107 -30 109 -3 2 -9 -7 -14 -20z"/>
</g><g transform="translate(0.000000,1598.000000) scale(0.100000,-0.100000)"
fill="#000000" stroke="none">
<path d="M7640 15971 c-52 -3 105 -6 350 -6 245 0 393 3 330 6 -139 8 -549 7
-680 0z"/>
<path d="M7335 15954 c-305 -24 -792 -97 -1070 -161 -156 -35 -384 -94 -440
-113 -83 -28 -22 -17 110 20 61 17 126 33 145 36 19 4 53 12 75 19 22 7 81 20
130 29 50 9 106 21 125 26 19 6 85 19 145 29 325 57 497 79 795 101 80 6 152
13 160 14 19 4 -120 4 -175 0z"/>
<path d="M8471 15955 c3 -2 61 -7 130 -9 98 -3 108 -3 49 4 -89 9 -185 12
-179 5z"/>
<path d="M8780 15930 c30 -5 73 -8 95 -8 39 1 38 1 -10 8 -27 5 -70 8 -95 8
l-45 -1 55 -7z"/>
<path d="M8975 15909 c33 -5 112 -16 175 -25 63 -9 138 -20 165 -25 28 -6 88
-16 135 -25 92 -15 226 -44 357 -75 95 -22 125 -24 68 -4 -35 12 -455 101
-525 112 -233 34 -381 53 -405 52 -16 -1 -3 -5 30 -10z"/>
<path d="M9935 15730 c11 -5 29 -9 40 -9 l20 0 -20 9 c-11 5 -29 9 -40 9 l-20
0 20 -9z"/>
<path d="M10001 15716 c2 -2 72 -23 154 -46 721 -202 1449 -526 2080 -924 732
-462 1425 -1077 1955 -1735 107 -132 302 -393 363 -486 26 -38 50 -74 55 -80
26 -33 72 -105 72 -113 0 -6 4 -12 9 -14 17 -6 301 -488 375 -637 19 -36 58
-115 88 -176 31 -60 65 -130 76 -155 76 -168 112 -251 112 -255 0 -2 13 -33
29 -67 102 -223 274 -747 365 -1113 79 -319 161 -785 191 -1090 33 -344 38
-455 39 -855 0 -301 3 -399 9 -335 8 86 2 802 -8 875 -2 19 -9 89 -15 155 -32
365 -97 798 -155 1040 -8 33 -30 128 -50 210 -19 83 -46 186 -60 230 -13 44
-32 107 -41 140 -85 291 -223 662 -367 985 -64 144 -198 421 -217 450 -22 33
-140 252 -140 260 0 5 -6 15 -13 22 -7 7 -37 54 -67 103 -141 235 -364 563
-519 760 -85 109 -237 297 -266 330 -15 17 -52 59 -83 95 -154 176 -459 481
-669 667 -79 70 -143 131 -143 135 0 4 -5 8 -11 8 -9 0 -39 23 -167 132 -13
11 -87 67 -165 126 -724 546 -1499 952 -2332 1222 -319 103 -333 107 -408 124
-71 17 -83 19 -76 12z"/>
<path d="M5710 15650 c-14 -5 -79 -25 -145 -46 -66 -20 -115 -39 -110 -40 6
-2 78 18 160 45 83 27 143 49 135 49 -8 0 -26 -3 -40 -8z"/>
<path d="M5320 15524 c-129 -47 -394 -150 -455 -178 -27 -13 -95 -43 -150 -67
-427 -185 -1029 -533 -1401 -809 -51 -38 -95 -66 -98 -63 -3 4 -6 2 -6 -4 0
-9 -58 -56 -182 -148 -26 -19 -231 -188 -254 -210 -6 -5 -49 -44 -95 -85 -292
-260 -627 -607 -836 -864 -26 -32 -66 -80 -88 -106 -22 -27 -69 -87 -104 -134
-35 -47 -68 -86 -74 -86 -6 0 -8 -3 -5 -6 5 -4 -126 -193 -178 -257 -8 -9 -14
-20 -14 -22 0 -3 -31 -52 -69 -108 -173 -258 -374 -614 -523 -927 -48 -102
-95 -198 -103 -213 -8 -16 -15 -33 -15 -37 0 -5 -13 -37 -29 -72 -89 -192
-322 -847 -321 -900 1 -7 38 100 84 237 83 250 103 304 178 490 288 716 701
1426 1167 2005 92 116 303 360 390 455 175 188 471 472 651 624 47 40 96 82
110 95 22 19 134 109 265 211 310 241 871 593 1198 751 40 20 79 40 87 45 32
20 317 151 420 193 36 15 74 31 85 36 41 19 105 43 275 106 197 72 222 83 200
82 -8 0 -58 -15 -110 -34z"/>
<path d="M5217 11398 c73 -94 120 -152 216 -266 l78 -92 174 0 173 0 71 85
c86 103 202 243 220 268 13 16 4 17 -153 17 l-166 0 -71 -90 c-82 -105 -70
-105 -161 12 l-60 78 -165 0 c-131 0 -163 -3 -156 -12z m379 -87 c38 -49 76
-90 85 -90 10 -1 48 39 88 89 l71 90 138 0 c76 0 141 -3 145 -6 3 -3 -40 -61
-95 -127 -55 -67 -116 -143 -136 -169 l-37 -47 -172 0 c-172 -1 -179 0 -174
32 1 5 -2 6 -7 3 -10 -6 -19 4 -102 107 -30 38 -78 96 -107 130 -29 33 -50 64
-48 67 3 4 67 8 143 9 l138 2 70 -90z"/>
<path d="M10042 11230 c-67 -98 -122 -182 -122 -185 0 -3 82 -5 183 -5 l183 0
177 178 c97 97 180 180 184 185 3 4 -104 7 -239 7 l-245 0 -121 -180z m568
162 c0 -4 -76 -83 -168 -175 l-168 -168 -167 3 -167 3 47 70 c25 38 50 74 55
80 5 5 36 51 69 102 l61 92 219 0 c120 0 219 -3 219 -7z"/>
<path d="M6747 10932 c-10 -2 -17 -9 -17 -15 -2 -460 1 -2001 4 -2004 5 -5
447 -5 452 0 5 5 6 2009 1 2014 -5 4 -418 9 -440 5z m431 -1006 c2 -791 0
-991 -10 -998 -7 -4 -101 -8 -209 -8 -154 0 -199 3 -208 14 -12 15 -16 1967
-4 1980 4 3 102 5 217 4 l211 -3 3 -989z"/>
<path d="M7427 10928 c-10 -6 -1 -43 63 -238 15 -47 62 -193 104 -325 42 -132
97 -301 121 -375 45 -139 178 -558 197 -620 6 -19 14 -44 19 -55 4 -11 36
-107 69 -213 l62 -192 271 2 272 3 12 35 c6 19 80 235 163 480 83 245 155 459
160 475 4 17 83 252 175 524 91 271 164 495 163 496 -6 6 -127 8 -305 7 l-182
-2 -35 -112 c-30 -100 -76 -253 -178 -593 -24 -82 -130 -459 -167 -595 -17
-62 -51 -219 -51 -235 0 -8 -4 -15 -9 -15 -4 0 -14 28 -20 63 -11 56 -67 285
-104 427 -15 58 -43 155 -109 375 -21 72 -38 135 -38 140 0 6 -11 46 -25 90
-14 44 -34 112 -45 150 -10 39 -34 122 -53 185 l-33 115 -243 5 c-134 3 -248
2 -254 -2z m488 -20 c18 -57 56 -187 60 -205 2 -13 21 -83 43 -155 22 -73 56
-191 77 -263 20 -71 46 -159 57 -195 21 -71 22 -76 72 -260 47 -173 87 -340
102 -423 6 -35 19 -55 30 -44 2 2 35 125 73 273 38 148 84 323 104 389 19 66
47 161 61 210 32 108 79 262 112 365 13 41 24 79 24 84 0 18 63 211 73 224 12
15 443 17 452 2 6 -10 -12 -65 -301 -920 -86 -256 -199 -591 -250 -745 -52
-154 -99 -290 -106 -302 -11 -23 -12 -23 -263 -23 -190 0 -255 3 -263 13 -6 6
-31 77 -55 157 -25 80 -59 186 -76 235 -16 50 -60 185 -96 300 -37 116 -73
228 -80 250 -8 22 -32 96 -53 165 -89 280 -166 521 -197 615 -19 55 -45 137
-58 182 l-25 81 239 1 c187 1 240 -1 244 -11z"/>
<path d="M4955 10908 c-3 -13 -4 -97 -3 -188 l3 -165 430 -5 c369 -4 430 -7
427 -20 -3 -13 -40 -67 -276 -405 -260 -374 -367 -527 -406 -584 -25 -36 -96
-139 -158 -228 l-113 -161 3 -119 3 -118 788 -3 787 -2 0 190 0 190 -442 1
c-539 2 -493 0 -492 21 1 13 282 430 379 563 12 17 56 80 97 140 74 110 106
155 245 355 40 58 102 148 138 201 l65 97 0 131 0 131 -735 0 -735 0 -5 -22z
m1453 0 c8 -8 12 -49 12 -116 0 -98 -2 -108 -31 -158 -17 -30 -35 -54 -40 -54
-5 0 -9 -5 -9 -11 0 -6 -30 -55 -67 -108 -38 -53 -80 -114 -95 -136 -14 -22
-72 -105 -127 -185 -55 -80 -121 -175 -146 -212 -25 -37 -51 -73 -58 -80 -7
-7 -18 -25 -26 -40 -8 -15 -18 -25 -23 -22 -4 3 -9 0 -9 -5 -1 -6 -2 -14 -3
-18 -1 -8 -195 -294 -205 -303 -19 -16 -101 -150 -101 -163 0 -15 42 -17 473
-19 l472 -3 0 -175 0 -175 -767 -3 c-890 -3 -789 -19 -787 130 1 89 3 94 38
143 20 27 76 110 126 183 49 73 97 141 107 152 10 10 18 22 18 25 0 5 89 136
99 145 3 3 11 13 16 22 13 23 173 256 197 288 11 14 49 68 86 120 36 52 70 97
74 98 4 2 8 8 8 13 0 5 15 31 33 57 137 197 167 241 167 251 0 8 -128 12 -437
13 l-438 3 -3 135 c-2 74 0 154 3 178 l6 42 713 0 c540 0 715 -3 724 -12z"/>
<path d="M9500 9920 l0 -1010 645 0 645 0 0 190 0 190 -412 2 -413 3 0 230 0
230 370 5 370 5 3 187 2 188 -372 2 -373 3 -3 194 c-2 149 1 196 10 203 7 4
185 8 396 8 l382 0 0 190 0 190 -625 0 -625 0 0 -1010z m1234 984 c3 -9 6 -84
6 -169 0 -119 -3 -155 -14 -164 -10 -9 -112 -12 -368 -11 -194 1 -365 1 -380
0 l-28 0 0 -215 0 -215 376 0 375 0 -1 -137 c-1 -76 -4 -157 -7 -179 l-5 -41
-366 -1 -367 -1 0 -247 0 -247 400 2 c220 1 406 -2 413 -7 9 -6 12 -49 10
-178 l-3 -169 -630 0 -630 0 -3 989 c-2 785 0 991 10 998 7 4 281 8 609 8 535
0 597 -2 603 -16z"/>
<path d="M293 10138 c-19 -63 -54 -203 -108 -433 -21 -89 -52 -251 -79 -420
-22 -134 -33 -214 -66 -490 -5 -44 -12 -138 -14 -210 l-5 -130 13 140 c8 77
19 190 25 250 21 227 79 597 122 780 5 22 16 72 23 110 8 39 18 88 24 110 6
22 21 78 33 125 12 47 30 116 41 153 11 38 18 73 16 79 -2 5 -13 -23 -25 -64z"/>
<path d="M7 8293 c-8 -160 -7 -479 2 -643 3 -63 6 86 6 333 0 246 0 447 -1
447 0 0 -4 -61 -7 -137z"/>
<path d="M7165 7634 c-69 -100 -125 -185 -125 -188 0 -3 83 -6 184 -6 l183 0
179 180 c99 99 181 183 183 185 2 2 -105 6 -238 7 l-241 3 -125 -181z m405 -9
l-175 -175 -167 0 -168 0 12 22 c7 12 49 74 93 138 44 63 91 132 105 152 l24
37 226 1 225 0 -175 -175z"/>
<path d="M10112 7630 c-67 -99 -122 -182 -122 -185 0 -3 82 -5 183 -5 l182 0
177 178 c98 97 181 180 184 185 4 4 -103 7 -237 7 l-245 0 -122 -180z m562
162 c2 -4 -69 -83 -159 -175 l-163 -167 -171 0 -171 0 26 43 c47 74 177 261
197 285 20 21 25 22 228 22 114 0 210 -3 213 -8z"/>
<path d="M13686 7752 c-21 -31 -76 -112 -122 -179 -46 -67 -84 -124 -84 -127
0 -3 82 -6 183 -6 l183 0 180 181 c98 99 181 182 183 185 2 2 -106 4 -240 4
l-244 -1 -39 -57z m484 41 c0 -4 -75 -83 -167 -175 l-168 -168 -167 0 c-93 0
-168 2 -168 5 0 3 26 42 58 87 31 44 80 115 109 158 28 43 60 83 70 89 21 12
433 16 433 4z"/>
<path d="M26 7410 c6 -133 25 -342 32 -336 4 5 -9 177 -28 356 l-9 85 5 -105z"/>
<path d="M15945 7390 c-4 -67 -5 -123 -2 -126 2 -3 8 49 12 116 4 67 5 123 2
126 -2 3 -8 -49 -12 -116z"/>
<path d="M5930 7349 c-183 -38 -314 -101 -413 -202 -69 -70 -105 -129 -138
-226 -27 -78 -26 -245 2 -331 61 -187 229 -327 524 -435 140 -52 195 -79 254
-126 65 -52 81 -83 81 -159 0 -86 -29 -128 -115 -171 -55 -27 -79 -33 -160
-37 -148 -7 -314 25 -474 92 -45 20 -66 24 -71 16 -4 -6 -19 -64 -35 -128 -15
-64 -35 -143 -45 -174 -19 -63 -18 -64 35 -90 232 -116 691 -132 938 -33 110
44 158 75 239 156 116 114 167 238 168 406 0 149 -43 262 -141 368 -93 100
-228 181 -414 248 -263 94 -371 192 -335 303 18 55 37 80 76 104 53 33 91 42
214 50 l115 7 -98 1 c-138 3 -217 -19 -273 -76 -36 -36 -44 -50 -49 -97 -6
-45 -3 -62 15 -100 12 -25 37 -57 55 -71 39 -30 193 -106 250 -124 22 -7 44
-16 49 -21 6 -5 17 -9 25 -9 23 0 179 -78 241 -120 208 -143 296 -353 246
-588 -41 -189 -193 -356 -388 -425 -151 -54 -200 -61 -398 -62 -231 0 -387 28
-532 95 -36 17 -36 29 7 197 19 76 35 146 35 155 0 19 29 25 46 9 19 -17 202
-73 284 -87 112 -18 263 -18 326 1 70 21 136 66 155 106 23 46 38 118 28 125
-5 3 -9 17 -9 32 0 77 -134 169 -355 244 -33 11 -109 46 -170 77 -93 47 -123
69 -195 141 -79 79 -107 120 -141 210 -9 23 -14 78 -14 160 0 106 4 134 23
180 84 211 270 349 531 395 105 19 288 19 406 1 100 -16 253 -61 273 -81 15
-13 7 -56 -38 -205 -11 -36 -24 -84 -30 -108 -11 -42 -11 -43 -38 -28 -44 23
-163 57 -217 62 l-50 4 60 -14 c33 -8 94 -26 135 -41 41 -14 82 -28 91 -31 13
-5 24 23 58 148 24 84 47 166 52 182 5 15 7 32 4 36 -9 14 -158 60 -260 81
-105 21 -358 25 -445 8z"/>
<path d="M1848 7332 c-263 -3 -250 1 -224 -69 8 -21 28 -81 44 -133 16 -52 66
-207 110 -345 44 -137 113 -351 152 -475 40 -124 85 -263 100 -310 15 -47 42
-128 58 -180 32 -101 150 -476 157 -497 3 -10 68 -13 277 -13 l273 0 27 83
c22 68 153 456 585 1737 19 58 38 110 43 115 4 6 10 27 13 47 l6 37 -241 3
c-267 3 -250 8 -269 -67 -4 -16 -30 -106 -59 -200 -28 -93 -60 -199 -70 -235
-10 -36 -50 -173 -89 -305 -110 -371 -159 -555 -180 -673 -12 -68 -27 -72 -41
-10 -6 29 -20 91 -30 138 -10 47 -33 139 -50 205 -18 66 -34 131 -37 145 -2
14 -8 34 -13 45 -5 11 -23 70 -40 130 -29 106 -44 159 -89 310 -11 39 -39 135
-62 215 -77 267 -85 292 -100 299 -8 3 -121 5 -251 3z m248 -27 c9 -9 27 -55
41 -103 63 -222 138 -485 173 -602 30 -104 40 -138 100 -355 29 -106 57 -221
96 -392 12 -51 24 -83 32 -83 7 0 14 6 16 13 15 48 40 144 71 277 20 85 54
216 77 290 22 74 42 144 45 155 3 11 29 101 59 200 30 99 60 203 69 230 8 28
28 95 44 150 17 55 39 129 49 165 l20 65 231 3 c178 3 231 1 231 -9 0 -6 -24
-84 -54 -173 -30 -89 -138 -408 -240 -711 -102 -302 -227 -674 -278 -825 l-93
-275 -252 -2 c-180 -1 -255 2 -265 10 -16 14 -34 67 -218 647 -39 124 -80 250
-90 280 -23 68 -176 544 -264 822 -36 113 -66 213 -66 221 0 24 443 25 466 2z"/>
<path d="M3538 7332 c-33 -4 -34 -7 -9 -52 10 -19 71 -134 136 -255 65 -121
138 -258 163 -305 24 -47 56 -105 70 -130 13 -25 48 -90 77 -145 29 -55 78
-147 109 -204 l56 -104 0 -414 0 -413 230 0 230 0 0 418 0 417 111 195 c61
107 141 249 178 315 37 66 136 240 219 387 84 147 152 272 152 278 0 7 -80 10
-257 8 l-256 -3 -49 -115 c-75 -177 -201 -482 -253 -612 -26 -65 -50 -118 -54
-118 -4 0 -14 19 -21 43 -8 23 -17 47 -22 53 -4 6 -9 19 -11 30 -2 10 -11 35
-20 54 -8 19 -38 91 -67 160 -28 69 -61 146 -72 171 -11 26 -48 111 -82 190
l-62 144 -234 5 c-129 3 -247 4 -262 2z m487 -36 c14 -14 25 -30 25 -35 0 -6
13 -39 29 -73 15 -35 56 -130 90 -213 34 -82 66 -157 71 -166 5 -9 34 -81 65
-160 31 -79 61 -154 66 -166 5 -13 14 -23 21 -23 7 0 45 81 85 183 39 100 105
261 146 357 40 96 86 205 101 241 26 62 31 67 65 73 62 10 451 7 451 -4 0 -5
-64 -121 -141 -257 -78 -137 -157 -277 -177 -313 -19 -36 -43 -76 -53 -89 -11
-13 -19 -28 -19 -34 0 -5 -17 -37 -38 -71 -22 -34 -63 -106 -92 -161 -29 -55
-59 -107 -66 -116 -8 -8 -14 -19 -14 -22 0 -4 -11 -25 -25 -47 l-25 -39 -2
-418 -3 -418 -215 0 -215 0 -3 419 c-2 336 -5 423 -16 435 -19 23 -206 375
-206 389 0 7 -4 12 -8 12 -5 0 -19 24 -33 53 -13 28 -33 68 -44 87 -12 19 -48
85 -80 145 -32 61 -80 150 -107 199 -26 49 -45 92 -42 97 3 5 1 9 -5 9 -9 0
-81 126 -81 142 0 4 106 7 235 8 l235 0 25 -24z"/>
<path d="M7248 7332 l-218 -2 0 -1010 0 -1010 230 0 230 0 0 1009 c0 799 -3
1010 -12 1012 -7 2 -111 3 -230 1z m226 -27 c3 -9 5 -458 3 -998 l-2 -982
-215 0 -215 0 -3 985 c-1 542 0 991 3 998 3 9 55 12 214 12 179 0 210 -2 215
-15z"/>
<path d="M8103 7333 l-223 -3 0 -1010 0 -1010 635 0 635 0 -2 193 -3 192 -400
5 -400 5 -3 818 c-1 449 -5 816 -10 815 -4 -2 -107 -4 -229 -5z m227 -828 c0
-645 3 -815 13 -815 6 0 182 0 391 0 270 0 382 -3 392 -11 20 -17 20 -331 0
-348 -10 -8 -183 -11 -625 -11 l-611 1 0 999 0 1000 220 0 220 0 0 -815z"/>
<path d="M13480 7332 c-7 -3 -10 -355 -10 -1013 l0 -1009 230 0 230 0 0 1010
0 1009 -220 3 c-121 2 -225 2 -230 0z m435 -1012 l0 -995 -215 0 -215 0 -2
982 c-2 540 0 989 3 998 6 13 34 15 218 13 l211 -3 0 -995z"/>
<path d="M9880 7288 c-6 -24 -32 -108 -56 -188 -53 -170 -91 -295 -134 -440
-17 -58 -35 -116 -40 -130 -5 -14 -37 -115 -70 -225 -34 -110 -73 -236 -87
-280 -14 -44 -29 -95 -34 -112 -5 -18 -13 -48 -18 -65 -5 -18 -43 -143 -85
-278 -42 -135 -76 -248 -76 -252 0 -5 107 -8 238 -8 l239 0 13 43 c7 23 16 53
20 67 4 14 22 79 40 145 18 66 41 150 51 188 l20 67 287 0 288 0 13 -47 c7
-27 20 -68 28 -93 31 -95 96 -316 100 -342 l5 -28 249 0 c221 0 249 2 249 16
0 9 -21 82 -46 162 -25 81 -63 203 -84 272 -21 69 -54 175 -73 235 -19 61 -54
171 -77 245 -43 141 -70 226 -138 445 -23 72 -64 207 -93 300 -28 94 -64 208
-79 255 l-27 85 -306 3 -306 2 -11 -42z m618 5 c12 -29 20 -55 67 -208 15 -49
42 -137 60 -195 19 -58 59 -188 90 -290 121 -393 139 -451 205 -660 38 -118
78 -249 91 -290 35 -122 80 -263 90 -288 5 -13 9 -27 9 -33 0 -6 -89 -8 -237
-7 l-237 3 -24 80 c-13 44 -34 116 -47 160 -24 82 -78 258 -80 262 -1 2 -134
3 -295 4 -335 1 -301 12 -330 -104 -10 -40 -34 -128 -53 -197 -19 -69 -40
-144 -46 -167 l-11 -42 -225 -1 c-244 -1 -235 -3 -216 56 5 16 24 76 41 134
30 101 39 129 94 305 14 44 37 121 52 170 14 50 49 162 76 250 56 179 75 240
113 370 15 50 30 94 33 100 3 5 7 16 8 25 0 8 8 38 17 65 9 28 30 97 47 155
17 58 40 130 50 160 9 30 25 82 35 115 30 99 9 94 331 94 l282 1 10 -27z"/>
<path d="M10141 6868 c-25 -112 -115 -452 -156 -587 -40 -134 -60 -121 200
-121 221 0 225 0 225 21 0 11 -16 75 -36 142 -54 183 -94 325 -147 530 -41
154 -55 157 -86 15z m74 -28 c28 -111 42 -161 125 -440 29 -96 53 -186 54
-200 l1 -25 -203 -3 c-173 -2 -203 0 -208 13 -7 18 9 87 48 210 15 50 51 185
79 300 49 205 66 262 74 254 2 -2 15 -51 30 -109z"/>
<path d="M11400 6320 l0 -1010 211 0 211 0 -3 724 c-3 582 -2 722 8 714 7 -6
13 -14 13 -19 0 -15 143 -312 235 -488 48 -90 164 -304 259 -475 95 -171 190
-344 212 -383 l39 -73 243 0 242 0 0 1010 0 1010 -210 0 c-161 0 -210 -3 -210
-12 -7 -473 6 -1161 26 -1325 4 -36 3 -53 -5 -53 -6 0 -11 5 -11 11 0 40 -219
490 -355 730 -48 85 -110 195 -138 244 -27 50 -67 119 -87 155 -21 36 -61 107
-90 158 l-52 92 -269 0 -269 0 0 -1010z m583 903 c50 -92 89 -160 243 -429 35
-61 64 -116 64 -122 0 -6 6 -17 14 -24 27 -27 266 -489 266 -514 0 -2 15 -37
33 -76 19 -40 40 -90 47 -110 8 -21 20 -38 28 -38 11 0 13 15 9 78 -3 42 -11
154 -17 247 -6 98 -10 364 -8 625 l3 455 195 0 195 0 0 -995 0 -995 -230 -3
-231 -2 -39 72 c-22 40 -56 102 -76 138 -19 36 -64 117 -99 180 -35 63 -78
140 -94 171 -17 31 -53 96 -81 145 -126 227 -291 554 -364 727 -13 30 -26 47
-33 44 -7 -2 -11 -11 -9 -18 2 -8 6 -339 9 -736 l4 -722 -201 0 -201 0 0 1000
0 999 259 0 260 0 54 -97z"/>
<path d="M15931 7225 c-19 -245 -76 -617 -138 -895 -14 -63 -29 -133 -33 -155
-4 -22 -11 -55 -15 -72 -4 -18 -5 -33 -2 -33 3 0 15 42 26 93 12 50 26 110 31
132 55 233 148 864 137 932 l-4 28 -2 -30z"/>
<path d="M61 7035 c-1 -24 31 -270 53 -410 12 -77 105 -513 115 -535 21 -52
13 -10 -43 240 -36 163 -82 422 -101 580 -17 144 -23 173 -24 125z"/>
<path d="M241 6045 c0 -11 4 -29 9 -40 l9 -20 0 20 c0 11 -4 29 -9 40 l-9 20
0 -20z"/>
<path d="M15711 5978 c-12 -46 -27 -101 -32 -123 -10 -42 -56 -196 -68 -230
-4 -11 -33 -97 -64 -192 -164 -497 -408 -1028 -697 -1518 -77 -130 -153 -249
-162 -253 -5 -2 -8 -8 -8 -14 0 -39 -493 -702 -607 -815 -23 -24 -40 -43 -37
-43 7 0 -89 -109 -216 -245 -185 -198 -464 -466 -621 -597 -41 -35 -117 -98
-167 -140 -160 -134 -672 -508 -696 -508 -3 0 -27 -15 -53 -34 -27 -18 -115
-74 -198 -123 -604 -362 -1309 -665 -1945 -837 -119 -32 -318 -83 -365 -94
-92 -20 -239 -50 -305 -62 -36 -6 -85 -16 -110 -21 -25 -5 -97 -16 -160 -25
-125 -17 -165 -31 -60 -20 207 22 857 159 1040 219 25 8 115 36 200 62 85 26
164 50 175 55 11 4 56 20 100 35 132 45 465 180 630 255 308 139 568 277 863
457 85 51 157 93 162 93 5 0 10 4 12 8 2 4 46 36 98 70 52 34 100 66 105 70 6
5 44 32 85 62 41 29 126 92 188 139 63 47 121 91 130 96 8 6 23 17 31 25 9 9
50 42 91 75 344 275 874 804 1114 1113 27 34 53 62 57 62 5 0 9 4 9 10 0 5 33
52 73 103 86 110 280 379 352 487 27 41 52 77 55 80 3 3 11 16 19 30 8 14 68
114 133 223 308 514 564 1088 751 1682 78 249 133 452 124 461 -2 3 -14 -33
-26 -78z"/>
<path d="M260 5974 c1 -58 177 -612 276 -868 102 -261 359 -826 386 -846 4 -3
11 -14 15 -25 32 -80 278 -491 418 -700 80 -118 268 -378 316 -436 22 -26 39
-52 39 -57 0 -6 6 -15 14 -19 22 -13 106 -120 99 -127 -4 -3 -2 -6 4 -6 5 0
48 -44 94 -97 243 -283 576 -619 848 -854 83 -71 267 -220 348 -282 29 -21 50
-44 46 -50 -3 -5 -1 -7 4 -4 6 4 64 -32 129 -80 195 -142 561 -380 722 -469
404 -224 650 -341 1032 -494 187 -74 518 -190 645 -225 33 -9 96 -27 140 -40
263 -80 988 -227 1052 -213 10 2 -9 8 -42 12 -274 34 -727 132 -1060 227 -263
76 -687 223 -833 290 -34 16 -65 29 -67 29 -3 0 -51 21 -107 46 -57 25 -123
55 -148 66 -89 40 -398 197 -510 260 -200 112 -562 335 -580 357 -3 3 -28 20
-56 37 -28 17 -123 84 -210 149 -515 383 -900 739 -1330 1230 -75 86 -293 356
-324 401 -8 12 -69 98 -136 190 -180 251 -314 463 -467 734 -58 103 -235 454
-285 566 -131 289 -233 548 -316 804 -83 257 -82 255 -117 380 -29 107 -39
136 -39 114z"/>
<path d="M6910 77 c7 -7 271 -37 317 -36 34 1 -39 11 -252 34 -38 4 -68 5 -65
2z"/>
<path d="M8950 70 c-53 -9 -139 -17 -343 -33 -82 -7 -146 -14 -143 -17 10 -10
606 45 606 56 0 6 -71 2 -120 -6z"/>
<path d="M7326 30 c88 -12 194 -17 194 -8 0 5 -15 8 -33 8 -19 0 -76 2 -128 5
-82 4 -87 3 -33 -5z"/>
<path d="M7650 9 c149 -8 534 -8 675 0 61 3 -92 6 -340 6 -247 0 -398 -3 -335
-6z"/>
</g></svg>