<svg xmlns="http://www.w3.org/2000/svg" viewBox="0 0 900.000000 512.000000"><g transform="translate(0.000000,512.000000) scale(0.100000,-0.100000)" stroke="none"><path fill="#F37021" d="M3370 4071 c-32 -10 -1399 -1380 -1415 -1418 -33 -79 -26 -147 22
-217 16 -22 291 -303 613 -625 322 -322 584 -589 582 -593 -1 -4 1 -7 5 -6 5
1 46 -35 93 -80 89 -87 111 -97 201 -95 67 1 104 24 203 126 112 117 143 181
122 262 -2 11 -5 25 -5 31 -2 19 -85 106 -578 601 -271 272 -493 500 -493 506
0 6 233 244 517 529 321 321 526 533 540 560 17 31 23 59 23 105 0 35 -4 63
-10 63 -5 0 -10 7 -10 16 0 9 -22 38 -50 64 -27 26 -50 51 -50 54 0 12 -62 66
-109 97 -39 25 -54 29 -110 28 -37 0 -77 -4 -91 -8z"/><path fill="#F37021" d="M5448 4066 c-20 -7 -49 -29 -65 -47 -15 -19 -54 -61 -86 -94 -73 -72
-96 -121 -97 -197 0 -54 3 -60 49 -115 27 -32 272 -283 546 -557 l497 -499
-526 -526 c-575 -576 -570 -570 -564 -676 2 -30 6 -55 10 -55 5 0 7 -3 7 -7
-4 -23 2 -43 11 -38 6 3 10 -1 10 -10 0 -9 4 -14 9 -11 5 3 39 -29 76 -72 38
-42 73 -79 79 -81 6 -2 16 -10 23 -17 33 -32 165 -35 221 -5 33 18 1387 1381
1399 1408 7 16 12 59 13 96 0 60 -4 74 -29 110 -31 45 -131 153 -131 142 0 -4
-12 8 -27 27 -16 18 -50 54 -78 80 -27 26 -54 52 -60 58 -345 351 -1068 1068
-1090 1082 -36 22 -141 24 -197 4z"/></g></svg>