<svg xmlns="http://www.w3.org/2000/svg" viewBox="0 0 900.000000 900.000000"><g transform="translate(0.000000,900.000000) scale(0.100000,-0.100000)" stroke="none"><path fill="#F37021" d="M5755 6194 c-104 -108 -192 -200 -194 -206 -2 -5 91 -103 205 -218
115 -114 237 -237 270 -272 34 -34 92 -93 130 -130 78 -77 72 -70 162 -162 37
-37 75 -75 85 -85 56 -50 267 -265 267 -272 0 -5 7 -9 15 -9 8 0 15 -4 15 -9
0 -5 7 -17 16 -25 14 -15 -2 -16 -178 -16 -106 0 -1371 0 -2811 0 l-2617 -1 2
-287 3 -287 2804 -2 c1542 -1 2805 -4 2807 -6 2 -2 -63 -73 -146 -157 -82 -84
-150 -150 -150 -146 0 5 -15 -9 -32 -31 -18 -21 -216 -221 -440 -445 -225
-223 -408 -411 -408 -416 0 -5 56 -66 125 -136 69 -70 125 -132 125 -138 0 -6
3 -9 6 -5 10 9 84 -65 77 -77 -3 -6 -3 -8 2 -4 4 4 18 -4 31 -17 13 -14 28
-25 35 -25 12 0 107 87 168 154 20 22 54 56 76 75 22 20 58 56 80 80 22 24 58
60 80 80 22 20 51 49 65 64 14 15 50 51 79 80 30 29 66 65 80 80 15 16 50 52
80 80 30 29 66 65 80 82 14 16 50 52 80 80 30 27 66 63 80 78 71 79 805 807
812 807 5 0 9 4 9 8 0 4 27 36 60 70 33 35 60 67 60 71 0 4 -9 16 -20 26 -11
10 -20 25 -20 33 0 9 -3 12 -7 9 -8 -9 -304 284 -297 295 3 5 1 7 -4 6 -14 -4
-282 264 -275 275 3 6 2 7 -4 4 -11 -7 -166 146 -158 156 3 4 2 5 -2 2 -10 -8
-453 436 -453 453 0 7 -4 11 -8 8 -5 -3 -149 137 -321 310 -172 173 -318 314
-324 314 -7 0 -97 -88 -202 -196z"/></g></svg>