<svg xmlns="http://www.w3.org/2000/svg" viewBox="0 0 604 604" width="604" height="604"><g transform="translate(0.000000,604.000000) scale(0.100000,-0.100000)"
fill="#F37021" stroke="none">
<path d="M2795 6030 c-22 -4 -87 -13 -145 -19 -114 -13 -168 -22 -301 -52 -48
-11 -97 -22 -110 -24 -118 -23 -644 -237 -657 -267 -2 -5 -8 -8 -13 -8 -11 0
-173 -94 -224 -131 -94 -68 -224 -166 -275 -208 -63 -52 -263 -250 -335 -331
-52 -59 -175 -222 -193 -257 -7 -12 -18 -28 -26 -35 -14 -15 -85 -129 -133
-218 -190 -344 -317 -734 -353 -1085 -7 -60 -16 -132 -21 -158 -12 -66 -11
-343 2 -446 53 -419 102 -627 219 -916 38 -96 110 -246 131 -277 11 -14 19
-31 19 -37 0 -5 14 -30 30 -54 17 -25 30 -49 30 -55 0 -6 3 -12 8 -14 4 -1 42
-56 85 -121 44 -65 84 -123 91 -130 6 -6 27 -32 46 -57 41 -55 76 -93 200
-219 194 -199 415 -372 635 -497 95 -55 218 -117 291 -148 49 -21 103 -44 119
-51 194 -83 481 -156 725 -185 52 -6 128 -15 168 -20 94 -13 344 -13 430 -1
37 6 112 15 167 22 225 26 444 82 724 184 147 54 482 230 545 287 11 10 24 18
29 18 9 0 113 74 127 89 3 3 25 22 50 41 158 121 412 375 516 515 16 22 37 49
47 60 82 89 338 542 347 613 1 4 7 16 14 27 7 11 34 81 59 155 77 223 126 430
147 625 7 61 16 132 21 158 12 63 12 369 0 438 -6 30 -15 99 -21 154 -15 137
-27 197 -66 357 -31 122 -88 307 -114 363 -5 11 -28 65 -52 120 -80 185 -213
418 -321 560 -120 159 -202 253 -337 385 -133 130 -177 168 -310 266 -67 50
-272 184 -310 203 -8 4 -26 14 -40 21 -67 36 -259 128 -290 139 -19 7 -44 17
-55 21 -100 40 -130 50 -141 50 -8 0 -22 4 -32 9 -54 28 -388 103 -537 121
-55 6 -127 16 -161 21 -72 11 -392 10 -449 -1z m-1276 -1436 c66 -64 121 -121
121 -128 0 -6 -28 -41 -63 -77 -411 -434 -614 -1110 -506 -1689 43 -230 112
-431 210 -616 44 -84 174 -282 211 -324 109 -121 138 -155 138 -166 0 -14
-214 -227 -237 -235 -17 -6 -91 69 -151 151 -14 19 -31 40 -37 45 -6 6 -24 28
-40 50 -16 22 -41 54 -55 70 -34 39 -116 177 -173 291 -236 473 -308 1023
-202 1549 15 76 80 306 94 333 16 32 31 67 45 107 20 58 64 148 118 243 27 46
48 85 48 88 0 6 122 178 155 219 91 112 180 205 195 205 4 0 62 -52 129 -116z
m3299 38 c185 -213 267 -333 374 -542 21 -41 43 -88 49 -105 7 -16 18 -46 26
-65 36 -92 86 -246 113 -348 41 -155 55 -291 55 -537 0 -294 -25 -469 -105
-730 -43 -142 -148 -374 -216 -480 -19 -30 -34 -57 -34 -60 0 -8 -159 -226
-190 -260 -15 -16 -49 -54 -76 -83 -79 -87 -70 -89 -200 39 -62 62 -117 121
-120 132 -4 13 11 36 56 85 35 37 71 76 80 87 21 24 160 224 160 230 0 3 15
28 33 57 69 109 166 349 201 497 46 190 59 323 53 531 -6 190 -20 299 -62 455
-54 206 -121 370 -218 535 -64 108 -133 196 -266 338 -23 24 -41 49 -41 56 0
7 54 65 119 130 137 135 128 133 209 38z m-2826 -510 c64 -64 118 -124 119
-132 2 -8 -15 -34 -37 -56 -101 -101 -226 -307 -269 -444 -10 -30 -21 -62 -26
-71 -31 -65 -59 -258 -59 -411 0 -228 63 -451 184 -652 50 -83 121 -178 165
-221 23 -21 41 -47 41 -56 0 -15 -218 -239 -241 -247 -18 -7 -141 133 -214
244 -132 200 -202 366 -257 609 -16 72 -38 278 -38 360 0 246 75 549 195 780
43 83 69 129 76 135 3 3 30 39 61 80 30 41 68 89 84 107 16 17 41 45 57 62 15
17 30 31 35 31 4 0 59 -53 124 -118z m2329 54 c227 -244 376 -561 428 -914 16
-103 13 -359 -4 -481 -14 -99 -60 -295 -74 -316 -4 -5 -13 -28 -20 -50 -33
-101 -179 -363 -215 -387 -6 -4 -8 -8 -3 -8 4 0 -4 -12 -17 -27 -13 -16 -47
-56 -75 -90 -81 -98 -70 -100 -210 42 -132 133 -132 133 -83 184 49 51 96 108
105 128 6 13 14 23 19 23 4 0 8 5 8 11 0 6 13 29 28 52 36 53 94 174 121 252
53 149 76 317 68 497 -8 192 -44 336 -132 522 -38 82 -168 277 -224 337 -11
12 -21 30 -21 39 0 19 219 240 238 240 7 0 35 -24 63 -54z m-1135 -187 c94
-17 255 -64 304 -89 213 -106 381 -287 469 -503 48 -118 66 -221 66 -377 -1
-224 -60 -398 -201 -585 -82 -109 -209 -213 -329 -269 -33 -16 -68 -32 -77
-37 -10 -5 -26 -9 -36 -9 -10 0 -22 -4 -27 -9 -18 -16 -187 -43 -280 -46 -95
-2 -265 25 -322 50 -17 8 -35 15 -40 15 -14 0 -160 77 -208 110 -66 45 -131
104 -182 163 -52 61 -103 134 -103 148 0 5 -9 22 -20 37 -23 32 -63 142 -84
232 -23 98 -21 327 3 432 32 134 117 315 176 373 12 11 28 32 37 47 24 36 151
138 223 178 33 18 67 39 75 45 19 15 148 59 220 74 154 33 237 38 336 20z"/>
<path d="M2790 3025 l0 -367 38 23 c20 12 80 45 132 72 52 27 100 53 105 57 6
4 51 29 100 55 50 26 113 60 140 75 28 15 69 38 92 50 73 38 72 42 -25 95
-115 64 -165 91 -297 160 -60 32 -139 75 -174 97 -35 21 -74 41 -87 44 l-24 6
0 -367z"/>
</g><g transform="translate(0.000000,604.000000) scale(0.100000,-0.100000)"
fill="#000000" stroke="none">
<path d="M2590 6020 c-69 -9 -156 -25 -195 -35 -38 -9 -88 -21 -110 -25 -22
-5 -49 -10 -61 -13 -32 -8 -265 -87 -299 -102 -16 -7 -79 -34 -140 -59 -60
-26 -137 -62 -170 -81 -33 -19 -78 -44 -100 -56 -57 -31 -185 -109 -204 -125
-9 -7 -53 -39 -98 -71 -107 -76 -183 -143 -323 -283 -125 -125 -195 -201 -251
-270 -60 -77 -184 -261 -228 -342 -24 -43 -47 -78 -52 -78 -5 0 -9 -5 -9 -11
0 -6 -24 -61 -53 -122 -30 -62 -64 -139 -77 -172 -13 -33 -27 -65 -32 -71 -5
-7 -10 -20 -12 -30 -2 -11 -18 -62 -36 -114 -30 -86 -41 -127 -86 -315 -20
-85 -54 -339 -53 -394 l1 -46 8 40 c4 22 13 90 19 150 38 352 164 741 354
1085 48 89 119 203 133 218 8 7 19 23 26 35 18 35 141 198 193 257 72 81 272
279 335 331 51 42 181 140 275 208 51 37 213 131 224 131 5 0 11 3 13 8 13 30
539 244 657 267 13 2 62 13 110 24 133 30 187 39 301 52 58 6 123 15 145 19
81 16 -74 8 -205 -10z"/>
<path d="M3255 6030 c28 -5 95 -14 150 -20 149 -18 484 -93 537 -121 10 -5 24
-9 32 -9 11 0 41 -10 141 -50 11 -4 36 -14 55 -21 31 -11 223 -103 290 -139
14 -7 32 -17 40 -21 38 -19 243 -153 310 -203 133 -98 177 -136 310 -266 135
-132 217 -226 337 -385 54 -70 93 -131 166 -255 52 -89 116 -214 155 -305 24
-55 47 -109 52 -120 26 -56 83 -241 114 -363 40 -163 51 -222 67 -362 6 -58
15 -123 19 -145 l8 -40 1 45 c1 84 -37 339 -71 475 -23 91 -76 270 -89 300 -5
11 -25 62 -44 114 -43 113 -124 282 -177 370 -22 35 -37 65 -34 68 2 3 -3 13
-12 22 -10 10 -23 26 -29 37 -7 10 -31 47 -53 80 -22 34 -40 66 -40 72 0 6 -8
17 -17 24 -10 7 -45 47 -77 88 -235 297 -478 511 -791 700 -32 19 -66 43 -76
53 -11 9 -23 17 -28 17 -6 0 -56 24 -113 53 -218 113 -574 234 -799 272 -211
36 -277 45 -329 44 l-55 -1 50 -8z"/>
<path d="M1339 4667 c-40 -38 -79 -82 -144 -162 -33 -41 -155 -213 -155 -219
0 -3 -21 -42 -48 -88 -54 -95 -98 -185 -118 -243 -14 -40 -29 -75 -45 -107
-14 -27 -78 -256 -94 -333 -21 -100 -43 -304 -46 -415 -4 -142 0 -260 9 -260
4 0 6 64 4 143 -6 242 39 559 104 737 13 36 24 71 24 79 0 7 14 45 31 84 17
40 38 90 47 112 26 61 133 268 148 286 8 8 14 19 14 23 0 11 52 79 72 94 10 7
18 18 18 23 0 13 60 93 118 157 23 26 42 50 42 53 0 4 16 19 35 34 l36 26 34
-28 c18 -15 34 -34 34 -40 1 -7 4 -12 9 -11 15 5 152 -144 144 -157 -4 -7 -29
-38 -57 -68 -27 -30 -62 -68 -76 -85 -34 -40 -161 -228 -181 -267 -8 -16 -38
-75 -65 -130 -154 -304 -226 -702 -194 -1065 7 -74 16 -151 21 -170 5 -19 14
-62 20 -95 15 -75 73 -249 112 -335 16 -36 38 -85 49 -110 28 -62 108 -199
136 -233 13 -16 23 -33 23 -38 0 -11 77 -108 153 -191 29 -32 53 -64 55 -71 1
-7 -47 -62 -108 -121 l-110 -109 -26 24 c-14 13 -51 56 -82 94 -31 39 -61 75
-67 80 -15 14 -123 160 -159 215 -40 62 -176 329 -176 347 0 7 -7 24 -15 36
-14 22 -89 254 -99 305 -3 15 -14 70 -24 122 -11 52 -24 129 -28 170 -5 43
-10 63 -12 46 -13 -101 76 -473 163 -685 61 -148 190 -383 245 -446 14 -16 39
-48 55 -70 16 -22 34 -44 40 -50 6 -5 23 -26 37 -45 60 -82 134 -157 151 -151
23 8 237 221 237 235 0 11 -29 45 -138 166 -37 42 -167 240 -211 324 -124 234
-199 486 -232 779 -20 176 0 425 52 637 77 320 259 660 476 889 35 36 63 71
63 77 0 12 -237 244 -250 244 -4 0 -27 -19 -51 -43z"/>
<path d="M4609 4594 c-65 -65 -119 -123 -119 -130 0 -7 18 -32 41 -56 133
-142 202 -230 266 -338 97 -165 164 -329 218 -535 42 -156 56 -265 62 -455 6
-208 -7 -341 -53 -531 -35 -148 -132 -388 -201 -497 -18 -29 -33 -54 -33 -57
0 -6 -139 -206 -160 -230 -9 -11 -45 -50 -80 -87 -45 -49 -60 -72 -56 -85 3
-11 58 -70 120 -132 130 -128 121 -126 200 -39 27 29 61 67 76 83 31 34 190
252 190 260 0 3 15 30 34 60 41 64 136 259 172 353 50 131 115 370 113 419 -1
34 -2 30 -24 -67 -29 -131 -81 -303 -100 -335 -7 -11 -15 -32 -19 -47 -23
-102 -203 -414 -333 -578 -56 -72 -176 -200 -187 -200 -13 0 -226 215 -226
228 0 6 20 32 45 59 93 98 257 328 305 428 13 28 31 58 39 68 8 9 11 17 8 17
-3 0 8 29 24 65 16 36 36 85 44 109 8 24 22 61 32 82 9 21 17 46 18 54 1 8 9
49 18 90 38 172 48 267 47 467 -2 188 -5 225 -31 368 -71 381 -256 750 -501
998 -26 27 -48 53 -48 59 0 13 213 228 227 228 16 0 233 -250 233 -268 0 -5 7
-16 16 -23 19 -16 77 -104 117 -179 16 -30 37 -66 47 -80 69 -100 250 -613
226 -638 -3 -3 -1 -11 4 -18 35 -41 64 -527 41 -665 -14 -81 -21 -196 -12
-179 26 48 35 523 13 712 -17 150 -79 377 -155 568 -8 19 -19 49 -26 65 -6 17
-28 64 -49 105 -107 209 -189 329 -374 542 -81 95 -72 97 -209 -38z"/>
<path d="M1833 4209 c-16 -17 -41 -45 -57 -62 -16 -18 -54 -66 -84 -107 -31
-41 -58 -77 -61 -80 -7 -6 -33 -52 -76 -135 -120 -231 -195 -534 -195 -780 0
-82 22 -288 38 -360 55 -243 125 -409 257 -609 73 -111 196 -251 214 -244 23
8 241 232 241 247 0 9 -18 35 -41 56 -116 112 -248 345 -299 526 -63 226 -68
452 -14 678 9 35 19 71 23 80 5 9 16 41 26 71 43 137 168 343 269 444 22 22
39 48 37 56 -3 16 -231 249 -243 250 -5 0 -20 -14 -35 -31z m143 -95 c57 -58
108 -112 112 -121 7 -11 -4 -29 -39 -67 -72 -77 -70 -75 -127 -164 -51 -79
-142 -266 -142 -292 0 -6 -11 -44 -24 -83 -31 -91 -46 -226 -46 -403 0 -121 4
-153 31 -263 43 -169 115 -338 184 -426 17 -22 43 -58 57 -80 14 -22 46 -62
72 -89 l48 -49 -44 -45 c-23 -26 -52 -55 -63 -65 -11 -10 -43 -41 -72 -68 -28
-27 -55 -49 -59 -49 -17 0 -171 188 -230 282 -14 22 -23 46 -20 54 3 8 2 12
-4 9 -16 -10 -127 214 -145 294 -2 9 -13 48 -24 86 -31 112 -51 235 -60 372
-8 130 1 311 18 373 5 19 15 60 21 91 10 50 42 153 95 302 10 26 21 47 26 47
5 0 9 7 9 14 0 17 54 111 114 201 53 79 191 245 204 245 3 0 51 -47 108 -106z"/>
<path d="M4133 4118 c-62 -61 -113 -119 -113 -128 0 -9 10 -27 21 -39 56 -60
186 -255 224 -337 88 -186 124 -330 132 -522 8 -180 -15 -348 -68 -497 -27
-78 -85 -199 -121 -252 -15 -23 -28 -46 -28 -52 0 -6 -4 -11 -8 -11 -5 0 -13
-10 -19 -23 -9 -20 -56 -77 -105 -128 -49 -51 -49 -51 83 -184 140 -142 129
-140 210 -42 28 34 62 74 75 90 13 15 21 27 17 27 -5 0 -3 4 3 8 36 24 182
286 215 387 7 22 16 45 20 50 14 21 60 217 74 316 17 122 20 378 4 481 -52
353 -201 670 -428 914 -28 30 -56 54 -63 54 -7 0 -64 -50 -125 -112z m183 42
c27 -28 53 -58 58 -68 5 -9 12 -19 15 -22 11 -10 98 -125 105 -140 4 -8 22
-42 41 -75 65 -114 130 -269 120 -285 -3 -4 -1 -10 5 -12 16 -5 68 -229 81
-345 10 -97 8 -273 -6 -413 -9 -101 -56 -277 -102 -389 -38 -92 -72 -163 -82
-171 -3 -3 -7 -12 -9 -20 -6 -27 -67 -122 -84 -131 -10 -5 -18 -14 -18 -19 0
-13 -60 -101 -89 -131 -14 -14 -41 -43 -59 -64 l-33 -38 -114 114 c-63 63
-115 118 -115 123 0 5 15 26 33 46 63 73 79 94 121 154 86 123 167 312 200
466 23 110 39 292 31 373 -7 83 -32 230 -44 267 -5 14 -21 63 -36 110 -16 47
-34 92 -40 100 -7 8 -16 26 -20 40 -4 14 -23 49 -41 78 -19 29 -34 55 -34 58
0 5 -56 81 -70 94 -30 29 -90 112 -90 126 0 19 198 224 217 224 6 0 33 -23 59
-50z"/>
<path d="M2950 3989 c-141 -26 -289 -69 -320 -94 -8 -6 -42 -27 -75 -45 -72
-40 -199 -142 -223 -178 -9 -15 -25 -36 -37 -47 -59 -58 -144 -239 -176 -373
-24 -105 -26 -334 -3 -432 21 -90 61 -200 84 -232 11 -15 20 -32 20 -37 0 -14
51 -87 103 -148 51 -59 116 -118 182 -163 48 -33 194 -110 208 -110 5 0 23 -7
40 -15 61 -28 226 -52 332 -49 111 4 266 33 272 51 3 8 -9 7 -41 -2 -25 -8
-46 -11 -46 -8 0 3 -6 0 -14 -6 -8 -7 -71 -14 -154 -17 -213 -9 -359 29 -541
138 -160 96 -329 296 -386 454 -9 27 -21 58 -25 69 -5 11 -16 60 -25 109 -21
110 -16 320 9 411 35 123 141 335 168 335 4 0 8 6 8 13 0 16 140 157 155 157
7 0 20 9 29 19 17 19 167 111 181 111 4 0 21 6 38 14 18 8 43 17 57 20 14 2
48 12 76 20 64 18 226 38 256 32 13 -3 46 -8 73 -11 67 -8 135 -26 135 -35 0
-4 22 -10 48 -12 69 -7 158 -53 312 -164 51 -36 130 -116 130 -131 0 -7 11
-23 25 -36 14 -13 34 -39 44 -58 50 -91 95 -187 102 -219 4 -19 15 -59 23 -87
49 -172 20 -424 -67 -602 -18 -35 -38 -66 -44 -68 -7 -3 -10 -9 -7 -14 3 -5
-9 -30 -27 -55 -101 -147 -253 -272 -413 -339 -38 -16 -63 -31 -56 -33 6 -2
22 0 33 6 162 73 180 85 315 200 86 73 201 248 242 368 57 163 71 357 41 529
-42 237 -196 467 -406 606 -100 67 -147 88 -260 120 -178 49 -283 59 -395 38z"/>
<path d="M2776 3325 c-4 -47 -6 -218 -5 -380 2 -333 -3 -316 80 -271 24 13 71
38 104 56 33 18 65 36 70 40 6 5 55 31 110 60 55 29 105 55 110 60 6 4 51 29
100 55 120 63 138 78 122 97 -7 8 -37 29 -67 45 -100 54 -155 86 -168 100 -7
7 -22 13 -32 13 -10 0 -20 3 -22 8 -1 4 -23 17 -48 29 -25 12 -74 39 -110 59
-120 68 -210 114 -224 114 -9 0 -15 -24 -20 -85z m125 17 c35 -22 114 -65 174
-97 132 -69 182 -96 297 -160 97 -53 98 -57 25 -95 -23 -12 -64 -35 -92 -50
-27 -15 -90 -49 -140 -75 -49 -26 -94 -51 -100 -55 -5 -4 -53 -30 -105 -57
-52 -27 -112 -60 -132 -72 l-38 -23 0 367 0 367 24 -6 c13 -3 52 -23 87 -44z"/>
<path d="M5 2750 c5 -97 9 -130 25 -210 5 -25 11 -64 14 -87 11 -92 85 -351
143 -503 40 -105 125 -304 137 -320 23 -31 46 -79 46 -94 0 -9 4 -16 9 -16 5
0 21 -21 37 -47 161 -280 394 -554 654 -771 166 -138 163 -135 260 -198 292
-190 570 -317 865 -399 33 -9 81 -23 107 -31 25 -8 68 -17 94 -20 27 -3 51 -7
54 -9 17 -10 217 -36 305 -40 112 -5 77 3 -110 25 -246 28 -534 101 -730 185
-16 7 -70 30 -119 51 -156 66 -388 198 -527 299 -210 154 -477 405 -599 565
-19 25 -40 51 -46 57 -7 7 -47 65 -91 130 -43 65 -81 120 -86 121 -4 2 -7 8
-7 14 0 6 -14 30 -30 55 -17 24 -30 49 -30 54 0 6 -8 23 -19 37 -17 25 -65
123 -106 217 -106 245 -184 524 -219 785 -9 63 -20 144 -25 180 -10 63 -10 62
-6 -30z"/>
<path d="M6025 2773 c-23 -220 -41 -325 -81 -488 -30 -118 -121 -391 -141
-422 -8 -12 -14 -24 -14 -27 3 -49 -265 -522 -346 -611 -10 -11 -31 -38 -47
-60 -104 -140 -358 -394 -516 -515 -25 -19 -47 -38 -50 -41 -14 -15 -118 -89
-127 -89 -5 0 -18 -8 -29 -18 -63 -57 -398 -233 -545 -287 -279 -102 -498
-158 -724 -185 -55 -6 -125 -15 -155 -19 l-55 -8 61 -2 c33 0 85 3 115 9 53 9
234 40 274 45 19 3 90 21 200 50 105 27 331 109 435 158 30 13 62 28 70 31 43
18 310 170 330 189 20 18 109 77 117 77 3 0 24 16 47 35 22 20 48 42 56 49 8
7 33 26 55 42 42 30 220 199 284 269 20 22 47 51 61 65 14 14 38 43 54 65 35
48 44 58 90 109 20 22 36 43 36 47 0 5 21 39 46 76 107 155 250 420 299 553
102 276 141 415 181 650 9 52 18 104 20 115 8 37 17 195 11 195 -3 0 -8 -26
-12 -57z"/>
<path d="M5151 2044 c0 -11 3 -14 6 -6 3 7 2 16 -1 19 -3 4 -6 -2 -5 -13z"/>
</g></svg>