<svg xmlns="http://www.w3.org/2000/svg" viewBox="0 0 606 606" width="606" height="606"><g transform="translate(0.000000,606.000000) scale(0.100000,-0.100000)"
fill="#F37021" stroke="none">
<path d="M2810 6044 c-19 -2 -82 -9 -140 -15 -342 -36 -720 -154 -1052 -327
-49 -25 -88 -49 -88 -54 0 -4 -6 -8 -13 -8 -27 0 -308 -190 -402 -271 -165
-143 -305 -282 -412 -409 -81 -97 -223 -300 -223 -319 0 -6 -4 -11 -9 -11 -4
0 -19 -21 -32 -47 -13 -27 -27 -50 -30 -53 -12 -9 -124 -233 -163 -324 -99
-232 -178 -530 -218 -821 -17 -120 -17 -601 0 -720 59 -414 178 -776 365
-1110 299 -534 777 -985 1322 -1245 150 -72 350 -150 383 -150 10 0 22 -4 28
-9 14 -15 268 -78 405 -100 390 -65 826 -50 1199 41 365 88 666 220 976 425
340 226 616 503 851 858 90 136 197 335 243 450 13 33 27 65 31 70 16 21 109
316 138 435 61 252 75 385 75 700 0 283 -3 322 -43 555 -69 392 -262 847 -505
1190 -181 256 -422 502 -670 684 -212 155 -379 250 -644 365 -46 20 -89 36
-96 36 -7 0 -27 7 -43 15 -82 41 -372 114 -578 145 -106 16 -199 22 -380 25
-132 2 -256 1 -275 -1z m425 -1033 c46 -20 91 -69 103 -109 4 -15 7 -857 7
-1872 0 -1743 -1 -1847 -18 -1877 -60 -110 -211 -149 -288 -73 -9 8 -69 56
-134 105 -64 50 -244 190 -399 313 -154 122 -325 257 -379 300 -54 42 -104 83
-112 89 -7 7 -16 13 -18 13 -3 0 -18 11 -33 24 -16 13 -60 50 -99 82 l-70 59
-485 6 c-267 3 -496 9 -510 14 -39 13 -97 63 -133 114 l-32 46 0 740 0 741 34
55 c24 41 49 65 90 90 l56 34 480 3 479 3 46 36 c25 20 50 41 55 47 6 7 51 45
100 86 50 41 99 82 110 92 11 9 85 72 165 140 80 68 152 130 161 138 10 8 36
31 60 50 23 19 56 47 73 62 17 15 49 42 70 60 22 18 49 42 61 54 12 11 35 31
51 43 16 12 56 46 89 76 164 145 260 220 290 228 43 10 92 6 130 -12z m1614
-447 c22 -9 52 -32 68 -52 15 -21 32 -42 38 -49 5 -7 31 -43 57 -80 220 -315
338 -594 407 -958 23 -124 41 -351 36 -446 -2 -35 -7 -109 -10 -164 -24 -368
-196 -826 -432 -1145 -66 -89 -133 -160 -163 -173 -54 -22 -151 3 -191 49 -26
30 -41 90 -34 133 5 28 27 65 77 128 88 109 120 159 191 294 114 216 186 439
217 672 13 102 13 378 -1 470 -40 274 -89 440 -192 657 -22 47 -44 87 -48 88
-5 2 -9 10 -9 18 0 17 -108 184 -174 269 -75 96 -84 170 -29 236 57 68 116 84
192 53z m-469 -513 c33 -17 105 -110 149 -191 76 -142 97 -189 135 -301 82
-243 114 -519 86 -750 -11 -93 -28 -183 -40 -214 -4 -11 -17 -54 -30 -95 -13
-41 -27 -79 -30 -85 -4 -5 -13 -26 -20 -45 -28 -73 -82 -183 -115 -235 -19
-30 -35 -59 -35 -65 0 -5 -3 -10 -8 -10 -4 0 -18 -17 -31 -38 -28 -46 -69 -66
-138 -66 -84 -1 -150 64 -160 158 -4 37 2 51 57 134 98 149 166 313 207 502
25 116 25 381 0 495 -19 84 -64 238 -77 265 -5 8 -20 42 -35 75 -30 67 -98
187 -118 207 -42 43 -48 155 -10 206 49 66 145 90 213 53z m-507 -383 c33 -17
46 -33 88 -109 35 -65 81 -185 108 -284 52 -196 39 -459 -34 -675 -63 -187
-99 -252 -160 -290 -79 -49 -203 -3 -233 86 -16 45 -9 120 12 143 23 26 72
158 96 261 49 208 21 418 -79 602 -41 77 -47 118 -26 174 25 66 81 104 152
104 30 0 64 -5 76 -12z"/>
</g><g transform="translate(0.000000,606.000000) scale(0.100000,-0.100000)"
fill="#000000" stroke="none">
<path d="M2765 6051 c-27 -3 94 -6 270 -6 176 0 295 3 265 7 -68 8 -466 7
-535 -1z"/>
<path d="M2590 6030 c-34 -7 -34 -7 -5 -8 17 0 53 3 80 8 l50 7 -45 0 c-25 0
-61 -3 -80 -7z"/>
<path d="M3365 6035 c6 -2 62 -11 125 -20 127 -18 281 -52 406 -90 98 -30 117
-31 50 -4 -97 39 -480 120 -561 118 -16 0 -25 -2 -20 -4z"/>
<path d="M2394 5996 c-109 -23 -258 -66 -385 -111 -37 -13 -70 -21 -73 -18 -3
4 -6 1 -6 -5 0 -7 -5 -12 -12 -12 -18 0 -97 -36 -293 -135 -99 -49 -183 -89
-187 -87 -5 1 -8 -2 -8 -7 0 -5 -56 -48 -123 -95 -298 -208 -541 -447 -747
-737 -45 -63 -88 -123 -97 -133 -18 -22 -200 -379 -230 -451 -75 -181 -174
-510 -172 -571 0 -10 15 40 34 111 41 159 102 345 151 462 39 90 151 314 163
323 3 3 17 26 30 53 13 26 28 47 32 47 5 0 9 5 9 11 0 19 142 222 223 319 107
127 247 266 412 409 94 81 375 271 402 271 7 0 13 4 13 8 0 11 149 88 300 155
192 84 406 149 680 206 25 5 34 9 20 9 -14 1 -75 -10 -136 -22z"/>
<path d="M4034 5880 c22 -11 45 -20 52 -20 13 0 122 -45 244 -102 502 -232
969 -652 1275 -1148 189 -307 351 -732 401 -1055 4 -27 9 -42 12 -32 8 36 -58
306 -120 492 -22 66 -61 167 -86 225 -45 101 -208 410 -222 420 -4 3 -35 48
-70 100 -34 52 -65 97 -69 100 -3 3 -22 25 -40 50 -98 127 -307 341 -441 451
-36 30 -67 56 -70 59 -43 45 -350 242 -465 298 -38 18 -72 37 -75 41 -4 7 -37
21 -50 23 -3 0 -30 12 -60 25 -61 28 -237 93 -248 93 -4 -1 11 -10 32 -20z"/>
<path d="M3105 5023 c-30 -8 -126 -83 -290 -228 -33 -30 -73 -64 -89 -76 -16
-12 -39 -32 -51 -43 -12 -12 -39 -36 -61 -54 -21 -18 -53 -45 -70 -60 -17 -15
-50 -43 -73 -62 -24 -19 -50 -42 -60 -50 -9 -8 -81 -70 -161 -138 -80 -68
-154 -131 -165 -140 -11 -10 -60 -51 -110 -92 -49 -41 -94 -79 -100 -86 -5 -6
-30 -27 -55 -47 l-46 -36 -479 -3 -480 -3 -56 -34 c-41 -25 -66 -49 -90 -90
l-34 -55 0 -741 0 -740 32 -46 c36 -51 94 -101 133 -114 14 -5 243 -11 510
-14 l485 -6 70 -59 c39 -32 83 -69 99 -82 15 -13 30 -24 33 -24 2 0 11 -6 18
-13 8 -6 58 -47 112 -89 54 -43 225 -178 379 -300 155 -123 335 -263 399 -313
65 -49 125 -97 134 -105 77 -76 228 -37 288 73 17 30 18 134 18 1877 0 1015
-3 1857 -7 1872 -25 86 -136 144 -233 121z m100 -14 c51 -14 110 -73 124 -124
13 -49 15 -3619 2 -3678 -25 -105 -129 -175 -218 -147 -21 7 -74 40 -118 74
-98 74 -114 87 -134 106 -9 8 -36 28 -59 44 -23 16 -42 33 -42 37 0 5 -5 9
-10 9 -9 0 -112 79 -412 319 -32 25 -58 50 -58 54 0 4 -9 11 -19 15 -11 4 -34
19 -53 34 -66 53 -195 155 -307 241 l-114 87 -451 1 c-248 0 -462 2 -476 5
-93 17 -149 60 -191 150 l-30 63 3 703 c3 774 0 734 66 809 17 19 52 46 79 59
l48 25 480 5 480 5 130 112 c72 61 211 179 310 262 99 83 205 173 235 200 99
87 202 175 234 200 17 13 54 45 81 71 86 81 292 250 317 259 31 13 56 13 103
0z"/>
<path d="M4715 4561 c-45 -27 -83 -77 -91 -117 -9 -51 9 -101 62 -169 66 -85
174 -252 174 -269 0 -8 4 -16 9 -18 4 -1 26 -41 48 -88 103 -217 152 -383 192
-657 14 -92 14 -368 1 -470 -31 -233 -103 -456 -217 -672 -71 -135 -103 -185
-191 -294 -50 -63 -72 -100 -77 -128 -7 -43 8 -103 34 -133 40 -46 137 -71
191 -49 30 13 97 84 163 173 236 319 408 777 432 1145 3 55 8 129 10 164 5 95
-13 322 -36 446 -69 364 -187 643 -407 958 -26 37 -52 73 -57 80 -6 7 -23 28
-38 49 -48 63 -142 86 -202 49z m150 -17 c56 -37 250 -326 333 -497 75 -153
100 -215 143 -360 57 -186 66 -236 89 -442 14 -126 11 -391 -5 -513 -44 -339
-177 -688 -370 -976 -43 -65 -85 -120 -92 -123 -7 -3 -13 -11 -13 -17 0 -16
-86 -106 -102 -107 -7 0 -24 -3 -38 -5 -67 -13 -134 30 -166 105 -13 30 -13
43 -4 76 12 38 106 162 120 158 4 -1 7 4 7 11 0 7 15 34 33 61 93 135 185 329
245 515 15 47 31 96 36 110 4 14 16 70 26 125 26 143 25 548 0 685 -10 52 -20
106 -22 120 -7 46 -65 224 -110 333 -58 143 -142 293 -239 424 -92 127 -110
163 -101 210 7 40 58 101 100 120 35 15 96 10 130 -13z"/>
<path d="M4226 4047 c-22 -12 -48 -34 -59 -49 -38 -51 -32 -163 10 -206 20
-20 88 -140 118 -207 15 -33 30 -67 35 -75 13 -27 58 -181 77 -265 25 -114 25
-379 0 -495 -41 -189 -109 -353 -207 -502 -55 -83 -61 -97 -57 -134 6 -56 26
-92 70 -128 33 -26 47 -31 90 -30 69 0 110 20 138 66 13 21 27 38 31 38 5 0 8
5 8 10 0 6 16 35 35 65 33 52 87 162 115 235 7 19 16 40 20 45 3 6 17 44 30
85 13 41 26 84 30 95 12 31 29 121 40 214 28 231 -4 507 -86 750 -38 112 -59
159 -135 301 -44 81 -116 174 -149 191 -47 25 -106 24 -154 -4z m142 -6 c20
-11 42 -28 49 -38 7 -10 28 -42 48 -71 20 -29 33 -58 29 -64 -4 -6 -3 -8 3 -5
6 4 30 -31 56 -81 176 -343 238 -740 167 -1081 -22 -105 -83 -298 -101 -315
-5 -6 -9 -17 -9 -26 0 -21 -88 -191 -145 -280 -70 -109 -138 -140 -220 -100
-25 12 -45 26 -45 30 0 5 -7 16 -16 25 -38 37 -37 123 0 154 9 7 16 17 16 21
0 4 24 48 53 98 206 348 243 778 101 1172 -33 94 -88 202 -153 305 -58 91 -64
127 -28 190 14 26 37 48 67 63 54 27 80 28 128 3z"/>
<path d="M3703 3651 c-50 -36 -79 -102 -69 -157 4 -20 21 -61 37 -92 51 -93
82 -188 95 -292 14 -114 21 -156 23 -125 4 115 -47 316 -114 442 -40 75 -41
87 -19 142 27 69 110 114 178 97 49 -12 89 -59 137 -162 110 -232 146 -492 99
-719 -24 -116 -56 -227 -80 -275 -10 -19 -28 -59 -41 -88 -29 -66 -75 -108
-128 -117 -85 -14 -155 38 -176 132 -5 26 1 49 33 115 52 110 92 243 97 326 2
37 2 56 -1 42 -31 -169 -86 -344 -120 -381 -21 -23 -28 -98 -12 -143 30 -89
154 -135 233 -86 61 38 97 103 160 290 73 216 86 479 34 675 -39 143 -118 326
-161 368 -26 27 -57 37 -111 37 -44 0 -62 -5 -94 -29z"/>
<path d="M45 3565 c-3 -26 -4 -49 -2 -52 3 -3 9 16 12 42 4 25 5 48 2 51 -2 3
-8 -16 -12 -41z"/>
<path d="M29 3479 c0 -13 -4 -48 -8 -76 -4 -29 -4 -53 0 -53 8 0 23 140 15
148 -3 3 -6 -6 -7 -19z"/>
<path d="M6026 3435 c3 -38 10 -74 15 -79 8 -9 4 32 -12 109 -6 29 -7 21 -3
-30z"/>
<path d="M7 3273 c-9 -87 -7 -452 1 -518 4 -27 7 93 7 267 0 175 0 318 -1 318
-1 0 -4 -30 -7 -67z"/>
<path d="M6045 3025 c0 -176 3 -291 6 -255 9 86 9 450 1 520 -4 30 -7 -89 -7
-265z"/>
<path d="M22 2675 c0 -16 3 -50 7 -75 6 -33 9 -37 9 -15 0 17 -3 50 -7 75 -6
33 -9 37 -9 15z"/>
<path d="M6016 2573 c-10 -69 -33 -188 -52 -262 -32 -127 -117 -394 -134 -416
-3 -5 -17 -37 -30 -70 -46 -115 -153 -314 -243 -450 -317 -478 -724 -832
-1239 -1079 -250 -119 -550 -209 -858 -258 -127 -20 -181 -22 -430 -22 -219 1
-310 5 -395 18 -168 27 -190 29 -184 23 3 -4 66 -16 140 -28 174 -26 544 -37
714 -20 519 53 987 218 1405 496 62 41 117 75 121 75 5 0 9 5 9 11 0 5 6 7 13
3 6 -4 9 -4 5 0 -4 5 21 30 55 57 506 403 874 960 1041 1578 39 141 71 302 81
404 12 111 1 76 -19 -60z"/>
<path d="M41 2533 c-3 -77 92 -427 163 -603 15 -36 27 -75 28 -87 1 -12 5 -20
9 -17 3 2 14 -15 23 -39 20 -53 108 -222 165 -318 46 -79 189 -285 226 -328
265 -308 436 -465 696 -638 157 -104 521 -293 566 -293 7 0 13 -4 13 -10 0 -5
8 -10 18 -10 11 0 58 -14 106 -30 108 -38 286 -86 346 -94 25 -3 -25 12 -110
34 -85 23 -159 45 -164 50 -6 6 -18 10 -28 10 -33 0 -233 78 -383 150 -473
226 -909 606 -1199 1045 -222 336 -358 663 -446 1070 -16 72 -29 120 -29 108z"/>
</g></svg>