<svg xmlns="http://www.w3.org/2000/svg" viewBox="0 0 1790 1762" width="1790" height="1762"><g transform="translate(0.000000,1762.000000) scale(0.100000,-0.100000)"
fill="#F37021" stroke="none">
<path d="M8740 16899 c-1143 -39 -2278 -332 -3305 -854 -787 -401 -1458 -893
-2080 -1526 -296 -301 -471 -505 -708 -821 -525 -703 -949 -1524 -1205 -2338
-71 -226 -82 -263 -142 -505 -217 -877 -285 -1786 -200 -2680 221 -2305 1412
-4373 3304 -5735 851 -612 1858 -1064 2876 -1290 442 -98 779 -146 1250 -180
346 -26 1028 -10 1370 30 47 6 123 14 170 20 245 28 716 119 985 190 943 249
1846 673 2621 1230 375 270 647 503 1000 855 334 333 528 557 793 915 598 808
1052 1767 1301 2750 143 567 218 1096 240 1705 27 730 -50 1462 -230 2190 -60
241 -69 274 -142 505 -339 1077 -963 2146 -1734 2975 -670 719 -1404 1275
-2259 1710 -1206 613 -2524 902 -3905 854z m-2087 -4634 c37 -47 74 -85 82
-85 8 0 44 38 80 85 l67 85 159 0 c87 0 159 -4 159 -8 0 -4 -44 -61 -97 -127
-54 -65 -118 -144 -143 -174 l-46 -56 -179 -2 -180 -2 -135 166 c-74 91 -141
174 -148 185 -13 17 -7 18 150 18 l163 0 68 -85z m4867 -100 l-185 -185 -183
0 c-101 0 -182 4 -180 8 2 5 57 88 122 185 l120 177 245 0 246 0 -185 -185z
m-4544 -295 l504 0 0 -132 -1 -133 -469 -680 c-257 -374 -466 -683 -464 -687
3 -5 216 -8 475 -8 l469 0 0 -190 0 -190 -784 0 -783 0 -7 31 c-10 53 -7 199
6 222 6 12 99 148 206 302 108 154 219 314 247 355 67 97 177 255 353 508 78
112 142 207 142 213 0 5 -167 9 -435 9 l-435 0 2 188 3 187 220 5 c121 3 226
4 233 3 8 -2 241 -3 518 -3z m1264 -1010 l0 -1009 -220 -3 c-121 -2 -225 -1
-230 0 -7 3 -10 355 -10 1013 l0 1009 230 0 230 0 0 -1010z m747 960 c7 -25
24 -83 37 -130 13 -47 76 -265 139 -485 110 -382 176 -628 212 -798 9 -42 21
-79 25 -82 4 -3 11 12 15 33 9 54 83 355 106 437 31 106 257 866 291 978 l30
97 244 0 c134 0 244 -2 244 -4 0 -4 -532 -1589 -627 -1866 l-49 -145 -271 -3
-271 -2 -25 77 c-14 43 -41 128 -61 188 -36 114 -228 715 -367 1150 -45 138
-105 325 -135 417 -30 91 -54 171 -54 177 0 8 72 11 251 9 l252 -3 14 -45z
m2813 -140 l0 -190 -392 -2 -393 -3 0 -200 0 -200 373 -3 372 -2 -2 -188 -3
-187 -370 -5 -370 -5 0 -230 0 -230 413 -3 412 -2 0 -190 0 -190 -645 0 -645
0 0 1010 0 1010 625 0 625 0 0 -190z m-210 -3115 l-185 -185 -183 0 c-101 0
-182 4 -180 9 11 30 246 361 257 363 8 2 118 2 245 0 l230 -3 -184 -184z
m-2946 1 l-179 -183 -188 -2 c-112 0 -187 3 -185 8 2 5 57 88 123 185 l120
175 244 1 245 0 -180 -184z m6436 -1 l-185 -185 -182 0 c-183 0 -200 3 -170
34 6 7 62 86 122 174 l110 162 245 0 245 0 -185 -185z m-7675 -281 c85 -14
262 -67 277 -82 6 -6 -84 -358 -95 -368 -2 -2 -40 9 -84 25 -157 58 -363 78
-467 47 -51 -16 -132 -64 -122 -73 3 -3 -1 -11 -10 -17 -20 -15 -34 -79 -27
-124 8 -44 67 -106 139 -144 28 -15 123 -57 213 -92 172 -70 267 -120 342
-183 129 -108 186 -223 196 -393 8 -149 -30 -276 -116 -390 -81 -108 -221
-193 -390 -237 -120 -31 -349 -42 -497 -23 -155 19 -384 90 -384 119 0 16 88
362 93 368 3 3 43 -11 89 -30 119 -51 234 -77 373 -84 130 -6 205 7 273 49 67
41 103 131 82 209 -24 88 -120 155 -346 240 -127 48 -188 77 -274 135 -194
127 -288 319 -259 529 36 271 234 456 555 519 96 20 329 19 439 0z m-4249 -18
c6 -3 14 -15 16 -28 3 -13 73 -260 156 -549 134 -466 198 -705 245 -919 17
-74 17 -74 52 80 45 203 125 490 235 850 21 69 61 204 90 300 28 96 58 196 66
223 l16 47 244 0 c134 0 244 -2 244 -4 0 -6 -417 -1248 -590 -1756 l-87 -255
-271 -3 -271 -2 -15 47 c-7 27 -55 176 -106 333 -90 280 -130 405 -210 655
-57 179 -224 698 -271 843 -22 68 -38 129 -36 135 3 9 69 11 243 9 132 -1 244
-4 250 -6z m3160 2 c1 -2 -78 -144 -176 -316 -98 -172 -188 -334 -201 -360
-13 -26 -27 -49 -30 -52 -3 -3 -63 -106 -132 -230 l-127 -226 0 -417 0 -417
-230 0 -230 0 0 415 0 416 -36 67 c-20 37 -49 90 -64 117 -15 28 -52 97 -83
155 -30 58 -143 269 -251 469 -108 201 -196 368 -196 373 0 4 117 8 260 8
l260 0 19 -42 c42 -90 235 -549 284 -675 29 -73 56 -132 60 -130 4 1 52 112
107 247 54 135 132 324 173 420 l74 175 229 5 c211 5 283 4 290 -2z m2224
-1009 l0 -1009 -230 0 -230 0 0 1010 0 1010 218 2 c119 2 223 1 230 -1 9 -2
12 -213 12 -1012z m5580 1 l0 -1010 -242 0 -243 0 -42 78 c-24 42 -58 104 -76
137 -34 61 -81 146 -247 450 -51 94 -96 175 -100 180 -13 17 -224 445 -261
527 -19 43 -36 78 -39 78 -3 0 -4 -326 -2 -725 l4 -725 -211 0 -211 0 0 1010
0 1010 269 0 269 0 63 -112 c35 -62 132 -234 216 -383 172 -302 309 -568 390
-755 66 -152 77 -166 69 -85 -19 188 -26 402 -26 842 0 315 4 493 10 495 5 2
100 2 210 0 l200 -3 0 -1009z m860 -1 l0 -1009 -230 0 -230 0 0 1010 0 1010
223 2 c122 2 225 2 230 0 4 -2 7 -457 7 -1013z m-5588 199 l3 -813 400 -5 400
-5 3 -192 2 -193 -635 0 -635 0 0 1010 0 1010 230 0 230 0 2 -812z m2220 617
c32 -104 78 -253 102 -330 24 -77 62 -198 84 -270 22 -71 113 -363 201 -647
89 -284 164 -530 167 -547 l7 -31 -246 0 -245 0 -21 63 c-11 34 -45 144 -75
245 -30 100 -58 187 -61 192 -10 16 -560 13 -573 -2 -5 -7 -40 -122 -78 -255
l-67 -243 -211 -1 c-205 -1 -258 0 -264 6 -2 1 29 108 69 236 39 129 79 261
89 294 20 67 56 185 190 620 123 400 229 748 248 813 l15 52 305 -2 306 -3 58
-190z"/>
<path d="M11191 7758 c-18 -79 -64 -253 -101 -388 -49 -176 -65 -247 -57 -252
17 -11 389 -10 405 1 11 7 1 52 -52 232 -61 210 -106 373 -137 497 -7 28 -16
52 -19 52 -3 0 -21 -64 -39 -142z"/>
</g><g transform="translate(0.000000,1762.000000) scale(0.100000,-0.100000)"
fill="#FFFFFF" stroke="none">
<path d="M8715 16911 c-49 -4 97 -6 325 -7 232 0 371 3 315 7 -118 8 -512 8
-640 0z"/>
<path d="M8345 16890 c-33 -5 -134 -16 -225 -25 -224 -23 -710 -105 -838 -141
-29 -8 -68 -17 -85 -19 -18 -2 -90 -20 -162 -40 -71 -20 -146 -40 -165 -45
-85 -20 -413 -125 -570 -183 -339 -126 -601 -240 -906 -398 -84 -43 -155 -75
-158 -72 -3 4 -6 1 -6 -6 0 -7 -29 -25 -64 -41 -35 -16 -83 -42 -107 -57 -24
-15 -53 -33 -64 -40 -11 -6 -94 -58 -185 -115 -90 -57 -172 -106 -181 -110 -9
-4 -20 -11 -23 -16 -3 -5 -58 -45 -123 -88 -64 -43 -126 -87 -137 -97 -36 -32
-156 -117 -166 -117 -6 0 -10 -5 -10 -12 0 -6 -2 -9 -5 -6 -3 3 -33 -21 -67
-53 -34 -33 -66 -59 -71 -59 -5 0 -14 -6 -22 -12 -7 -7 -32 -29 -56 -48 -23
-19 -66 -56 -94 -82 -29 -27 -54 -48 -57 -48 -4 0 -21 -15 -40 -32 -19 -18
-81 -76 -138 -128 -139 -128 -472 -466 -558 -567 -38 -45 -84 -97 -102 -115
-17 -18 -45 -52 -62 -75 -17 -24 -35 -43 -40 -43 -4 0 -20 -19 -34 -42 -15
-24 -48 -68 -73 -99 -25 -30 -55 -68 -66 -83 -23 -33 -70 -94 -89 -117 -23
-28 -221 -318 -234 -344 -7 -14 -17 -25 -22 -25 -5 0 -12 -10 -16 -22 -4 -13
-29 -56 -56 -95 -26 -40 -49 -76 -49 -80 -1 -5 -14 -27 -30 -50 -16 -23 -29
-45 -29 -49 0 -4 -14 -30 -32 -58 -17 -28 -47 -80 -66 -116 -19 -36 -50 -90
-68 -121 -19 -31 -34 -61 -34 -67 0 -6 -6 -17 -12 -24 -7 -7 -21 -30 -30 -50
-10 -21 -23 -38 -28 -38 -6 0 -8 -5 -5 -10 4 -6 -22 -70 -58 -143 -36 -73 -77
-161 -92 -197 -15 -36 -33 -78 -42 -95 -27 -55 -134 -329 -168 -430 -19 -55
-50 -147 -70 -205 -38 -109 -92 -290 -127 -420 -11 -41 -31 -115 -45 -165 -13
-49 -28 -108 -33 -130 -41 -205 -41 -203 -84 -455 -39 -227 -44 -262 -61 -400
-30 -248 -44 -471 -51 -805 -8 -430 9 -741 66 -1183 28 -217 30 -229 46 -307
7 -38 15 -83 18 -100 8 -58 28 -160 37 -191 5 -17 9 -39 9 -49 0 -10 7 -41 15
-69 8 -28 31 -118 51 -201 20 -82 42 -168 49 -190 12 -39 30 -101 61 -215 9
-30 20 -64 25 -75 5 -11 23 -63 40 -115 17 -52 37 -108 44 -125 7 -16 22 -59
34 -95 37 -110 147 -380 206 -505 62 -133 97 -210 98 -220 1 -5 5 -12 8 -15
13 -10 129 -240 129 -255 0 -8 4 -15 9 -15 5 0 16 -17 25 -37 9 -21 36 -69 60
-108 24 -38 57 -92 72 -120 15 -27 32 -59 39 -70 20 -36 74 -121 125 -196 28
-41 50 -78 50 -82 0 -5 14 -27 31 -49 44 -54 109 -151 109 -161 0 -4 16 -24
35 -44 19 -20 35 -40 35 -45 0 -5 9 -19 20 -31 11 -12 37 -46 58 -77 20 -30
49 -68 64 -84 16 -17 28 -33 28 -37 0 -4 17 -25 38 -47 44 -48 92 -108 92
-115 0 -3 25 -31 55 -62 30 -32 55 -63 55 -70 0 -7 7 -16 16 -19 8 -3 12 -11
9 -16 -4 -6 -2 -9 3 -8 8 3 48 -38 120 -122 32 -36 382 -390 440 -443 34 -33
62 -63 62 -67 0 -5 8 -11 18 -14 10 -4 55 -41 100 -84 45 -43 82 -76 82 -74 0
5 85 -62 117 -92 12 -12 33 -29 45 -38 13 -9 50 -39 83 -66 104 -84 373 -282
384 -282 5 0 14 -6 18 -12 9 -14 259 -181 437 -290 41 -26 278 -158 282 -158
3 0 37 -18 76 -41 70 -41 174 -94 323 -164 44 -20 125 -59 181 -86 55 -27 106
-49 112 -49 6 0 48 -16 94 -36 46 -19 102 -42 126 -50 24 -8 64 -25 90 -36 26
-12 65 -27 87 -34 22 -6 78 -25 125 -42 107 -39 323 -108 415 -133 229 -62
307 -82 365 -95 36 -7 88 -20 115 -28 28 -8 95 -22 150 -31 55 -9 132 -23 170
-31 78 -16 119 -22 390 -57 283 -37 391 -46 718 -59 440 -18 934 5 1357 63 80
11 174 24 210 29 36 5 97 16 135 24 39 8 115 22 170 31 55 9 123 23 150 31 28
8 79 21 115 28 36 8 117 28 180 45 63 17 147 40 186 50 40 11 121 36 180 55
60 19 136 44 169 55 152 49 294 103 483 182 51 21 98 39 104 39 6 0 57 22 112
49 56 27 137 66 181 86 149 70 253 123 323 164 39 23 73 41 76 41 4 0 241 132
282 158 118 72 411 264 430 280 5 5 21 15 35 22 13 7 26 16 29 19 3 4 68 53
145 111 77 57 167 126 200 152 33 27 70 57 82 66 12 9 41 34 65 55 49 44 98
81 98 74 0 -3 39 33 87 79 48 46 93 84 100 84 7 0 13 4 13 9 0 5 28 35 62 68
35 32 80 75 100 96 20 20 42 37 48 37 5 0 10 4 10 10 0 5 60 70 133 145 72 75
143 148 155 163 71 81 110 120 116 115 3 -4 6 1 6 10 0 9 5 17 10 17 6 0 10 6
10 14 0 8 25 39 55 71 30 31 55 59 55 62 0 7 48 67 93 115 20 22 37 43 37 47
0 4 12 20 28 37 15 16 44 54 64 84 21 31 47 65 58 77 11 12 20 26 20 31 0 5
15 24 33 43 18 19 36 41 40 49 24 48 87 140 96 140 5 0 11 8 15 17 3 10 11 27
18 38 19 31 91 143 137 213 22 35 41 65 41 67 0 6 148 259 159 272 6 6 13 23
17 38 4 15 13 29 20 32 8 3 14 11 14 19 0 17 120 248 131 252 5 2 9 15 9 28 0
13 5 24 10 24 6 0 10 5 10 11 0 11 20 57 85 194 48 102 163 388 196 485 12 36
27 79 34 95 7 17 27 73 44 125 17 52 35 104 40 115 9 19 17 47 57 192 9 32 20
69 24 83 21 69 42 145 65 245 14 61 32 133 40 161 8 28 15 59 15 69 0 10 4 32
9 49 9 31 29 133 37 191 3 17 11 62 18 100 16 78 18 90 46 307 27 211 47 428
61 653 14 229 5 793 -17 1040 -12 149 -47 453 -59 525 -9 50 -58 326 -65 365
-14 75 -42 220 -50 260 -5 22 -20 81 -33 130 -14 50 -34 124 -45 165 -37 139
-91 314 -147 480 -31 91 -62 183 -70 205 -18 56 -137 346 -174 427 -17 36 -31
69 -31 72 0 3 -32 71 -71 151 -39 79 -68 149 -64 155 3 5 1 10 -5 10 -5 0 -18
17 -28 38 -9 20 -23 43 -29 50 -7 7 -13 18 -13 24 0 6 -15 36 -34 67 -18 31
-49 85 -68 121 -19 36 -49 88 -66 116 -18 28 -32 54 -32 58 0 4 -14 27 -30 52
-17 24 -27 44 -23 44 4 0 4 4 -2 8 -15 11 -101 145 -109 170 -4 12 -11 22 -16
22 -5 0 -15 11 -22 25 -13 26 -211 316 -234 344 -7 9 -27 34 -43 56 -17 22
-34 45 -38 50 -5 6 -33 42 -64 80 -31 39 -68 89 -82 113 -15 23 -31 42 -35 42
-5 0 -23 19 -40 43 -17 23 -45 57 -62 75 -18 18 -64 70 -102 115 -73 85 -380
401 -509 522 -140 133 -351 316 -439 382 -30 22 -76 61 -102 86 -26 25 -49 42
-52 39 -3 -3 -6 0 -6 6 0 7 -4 12 -10 12 -10 0 -131 86 -167 118 -12 12 -74
55 -137 97 -63 42 -120 83 -127 91 -6 8 -15 14 -20 14 -4 0 -77 43 -161 96
-84 53 -163 103 -175 110 -13 8 -26 15 -30 15 -5 0 -29 16 -55 35 -26 18 -77
47 -113 63 -36 16 -65 35 -65 42 0 7 -3 10 -6 6 -3 -3 -74 29 -158 72 -346
178 -679 321 -1061 453 -33 11 -64 24 -70 28 -5 4 -29 10 -52 14 -24 3 -57 12
-75 20 -34 15 -156 52 -218 66 -19 5 -93 25 -165 45 -71 20 -144 38 -162 40
-17 2 -56 11 -85 19 -48 13 -175 39 -333 67 -33 6 -80 14 -105 19 -77 15 -241
39 -345 50 -233 26 -287 31 -415 35 l-135 4 110 -9 c829 -66 1499 -210 2245
-483 808 -294 1632 -773 2320 -1346 257 -214 519 -464 764 -726 771 -829 1395
-1898 1734 -2975 73 -231 82 -264 142 -505 218 -880 285 -1787 200 -2680 -160
-1675 -824 -3214 -1939 -4500 -208 -240 -681 -697 -952 -920 -872 -716 -1924
-1252 -3034 -1545 -269 -71 -740 -162 -985 -190 -47 -6 -123 -14 -170 -20
-342 -40 -1024 -56 -1370 -30 -362 26 -658 63 -965 121 -1399 264 -2692 891
-3759 1823 -1460 1275 -2395 2998 -2666 4911 -33 237 -59 547 -70 840 -27 730
50 1465 230 2190 60 242 71 279 142 505 256 814 680 1635 1205 2338 237 316
412 520 708 821 981 998 2176 1709 3509 2085 559 158 1051 241 1706 289 25 2
-2 4 -60 4 -58 0 -132 -3 -165 -7z"/>
<path d="M6272 12332 c7 -11 74 -94 148 -185 l135 -166 180 2 179 2 46 56 c25
30 89 109 143 174 53 66 97 123 97 127 0 4 -72 8 -159 8 l-159 0 -67 -85 c-36
-47 -72 -85 -80 -85 -8 0 -45 38 -82 85 l-68 85 -163 0 c-157 0 -163 -1 -150
-18z"/>
<path d="M11094 12173 c-65 -97 -120 -180 -122 -185 -2 -4 79 -8 180 -8 l183
0 185 185 185 185 -246 0 -245 0 -120 -177z"/>
<path d="M6225 11870 l-220 -5 -3 -187 -2 -188 435 0 c268 0 435 -4 435 -9 0
-6 -64 -101 -142 -213 -176 -253 -286 -411 -353 -508 -28 -41 -139 -201 -247
-355 -107 -154 -200 -290 -206 -302 -13 -23 -16 -169 -6 -222 l7 -31 783 0
784 0 0 190 0 190 -469 0 c-259 0 -472 3 -475 8 -2 4 207 313 464 687 l469
680 1 133 0 132 -504 0 c-277 0 -510 1 -518 3 -7 1 -112 0 -233 -3z"/>
<path d="M7780 10861 c0 -658 3 -1010 10 -1013 5 -1 109 -2 230 0 l220 3 0
1009 0 1010 -230 0 -230 0 0 -1009z"/>
<path d="M8470 11859 c0 -6 24 -86 54 -177 30 -92 90 -279 135 -417 139 -435
331 -1036 367 -1150 20 -60 47 -145 61 -188 l25 -77 271 2 271 3 49 145 c95
277 627 1862 627 1866 0 2 -110 4 -244 4 l-244 0 -30 -97 c-34 -112 -260 -872
-291 -978 -23 -82 -97 -383 -106 -437 -4 -21 -11 -36 -15 -33 -4 3 -16 40 -25
82 -36 170 -102 416 -212 798 -63 220 -126 438 -139 485 -13 47 -30 105 -37
130 l-14 45 -252 3 c-179 2 -251 -1 -251 -9z"/>
<path d="M10550 10860 l0 -1010 645 0 645 0 0 190 0 190 -412 2 -413 3 0 230
0 230 370 5 370 5 3 187 2 188 -372 2 -373 3 0 200 0 200 393 3 392 2 0 190 0
190 -625 0 -625 0 0 -1010z"/>
<path d="M11299 8752 c-11 -2 -246 -333 -257 -363 -2 -5 79 -9 180 -9 l183 0
185 185 184 184 -230 3 c-127 2 -237 2 -245 0z"/>
<path d="M8215 8574 c-66 -97 -121 -180 -123 -185 -2 -5 73 -8 185 -8 l188 2
179 183 180 184 -245 0 -244 -1 -120 -175z"/>
<path d="M14665 8588 c-60 -88 -116 -167 -122 -174 -30 -31 -13 -34 170 -34
l182 0 185 185 185 185 -245 0 -245 0 -110 -162z"/>
<path d="M6966 8284 c-321 -63 -519 -248 -555 -519 -29 -210 65 -402 259 -529
86 -58 147 -87 274 -135 226 -85 322 -152 346 -240 21 -78 -15 -168 -82 -209
-68 -42 -143 -55 -273 -49 -139 7 -254 33 -373 84 -46 19 -86 33 -89 30 -5 -6
-93 -352 -93 -368 0 -29 229 -100 384 -119 148 -19 377 -8 497 23 273 71 439
228 496 466 29 127 4 306 -59 410 -81 134 -205 220 -469 327 -90 35 -185 77
-213 92 -72 38 -131 100 -139 144 -7 45 7 109 27 124 9 6 13 14 10 17 -10 9
71 57 122 73 104 31 310 11 467 -47 44 -16 82 -27 84 -25 11 10 101 362 95
368 -15 15 -192 68 -277 82 -110 19 -343 20 -439 0z"/>
<path d="M2663 8263 c-2 -6 14 -67 36 -135 47 -145 214 -664 271 -843 80 -250
120 -375 210 -655 51 -157 99 -306 106 -333 l15 -47 271 2 271 3 87 255 c173
508 590 1750 590 1756 0 2 -110 4 -244 4 l-244 0 -16 -47 c-8 -27 -38 -127
-66 -223 -29 -96 -69 -231 -90 -300 -110 -360 -190 -647 -235 -850 -35 -154
-35 -154 -52 -80 -47 214 -111 453 -245 919 -83 289 -153 536 -156 549 -2 13
-10 25 -16 28 -6 2 -118 5 -250 6 -174 2 -240 0 -243 -9z"/>
<path d="M6026 8270 l-229 -5 -74 -175 c-41 -96 -119 -285 -173 -420 -55 -135
-103 -246 -107 -247 -4 -2 -31 57 -60 130 -49 126 -242 585 -284 675 l-19 42
-260 0 c-143 0 -260 -4 -260 -8 0 -5 88 -172 196 -373 108 -200 221 -411 251
-469 31 -58 68 -127 83 -155 15 -27 44 -80 64 -117 l36 -67 0 -416 0 -415 230
0 230 0 0 417 0 417 127 226 c69 124 129 227 132 230 3 3 17 26 30 52 13 26
103 188 201 360 98 172 177 314 176 316 -7 6 -79 7 -290 2z"/>
<path d="M8298 8272 l-218 -2 0 -1010 0 -1010 230 0 230 0 0 1009 c0 799 -3
1010 -12 1012 -7 2 -111 3 -230 1z"/>
<path d="M13710 8272 c-6 -2 -10 -180 -10 -495 0 -440 7 -654 26 -842 8 -81
-3 -67 -69 85 -81 187 -218 453 -390 755 -84 149 -181 321 -216 383 l-63 112
-269 0 -269 0 0 -1010 0 -1010 211 0 211 0 -4 725 c-2 399 -1 725 2 725 3 0
20 -35 39 -78 37 -82 248 -510 261 -527 4 -5 49 -86 100 -180 166 -304 213
-389 247 -450 18 -33 52 -95 76 -137 l42 -78 243 0 242 0 0 1010 0 1009 -200
3 c-110 2 -205 2 -210 0z"/>
<path d="M14743 8272 l-223 -2 0 -1010 0 -1010 230 0 230 0 0 1009 c0 556 -3
1011 -7 1013 -5 2 -108 2 -230 0z"/>
<path d="M8930 7260 l0 -1010 635 0 635 0 -2 193 -3 192 -400 5 -400 5 -3 813
-2 812 -230 0 -230 0 0 -1010z"/>
<path d="M10928 8218 c-19 -65 -125 -413 -248 -813 -134 -435 -170 -553 -190
-620 -10 -33 -50 -165 -89 -294 -40 -128 -71 -235 -69 -236 6 -6 59 -7 264 -6
l211 1 67 243 c38 133 73 248 78 255 13 15 563 18 573 2 3 -5 31 -92 61 -192
30 -101 64 -211 75 -245 l21 -63 245 0 246 0 -7 31 c-3 17 -78 263 -167 547
-88 284 -179 576 -201 647 -22 72 -60 193 -84 270 -24 77 -70 226 -102 330
l-58 190 -306 3 -305 2 -15 -52z m321 -370 c31 -124 76 -287 137 -497 53 -180
63 -225 52 -232 -16 -11 -388 -12 -405 -1 -8 5 8 76 57 252 37 135 83 309 101
388 18 78 36 142 39 142 3 0 12 -24 19 -52z"/>
</g></svg>