<?xml version="1.0" encoding="UTF-8"?>
<svg xmlns="http://www.w3.org/2000/svg" xmlns:xlink="http://www.w3.org/1999/xlink" width="5908.2675" height="1772.25" viewBox="0 0 5908.2675 1772.25">
<path fill-rule="nonzero" fill="#303030" fill-opacity="1" d="M 510.667969 1584.078125 L 924.492188 1584.078125 L 1287.339844 467.050781 L 948.484375 467.050781 L 824.785156 900.367188 C 787.300781 1030.8125 752.816406 1160.507812 719.078125 1290.953125 C 683.84375 1160.507812 647.859375 1030.8125 608.875 900.367188 L 479.179688 467.050781 L 135.828125 467.050781 Z M 510.667969 1584.078125 "/>
<path fill-rule="nonzero" fill="#303030" fill-opacity="1" d="M 1346.5625 1584.078125 L 2211.699219 1584.078125 L 2211.699219 1320.191406 L 1658.433594 1320.191406 L 1658.433594 1153.761719 L 2168.964844 1153.761719 L 2168.964844 898.871094 L 1658.433594 898.871094 L 1658.433594 730.941406 L 2211.699219 730.941406 L 2211.699219 467.050781 L 1346.5625 467.050781 Z M 1346.5625 1584.078125 "/>
<path fill-rule="nonzero" fill="#303030" fill-opacity="1" d="M 2324.898438 1584.078125 L 2636.769531 1584.078125 L 2636.769531 1234.726562 L 2776.210938 1234.726562 L 2943.386719 1584.078125 L 3268 1584.078125 L 3063.335938 1167.257812 C 3172.042969 1102.785156 3233.515625 995.578125 3233.515625 856.886719 C 3233.515625 617.738281 3066.335938 467.050781 2799.449219 467.050781 L 2324.898438 467.050781 Z M 2636.769531 993.328125 L 2636.769531 720.445312 L 2776.210938 720.445312 C 2869.917969 720.445312 2929.144531 775.171875 2929.144531 856.886719 C 2929.144531 938.601562 2869.917969 993.328125 2776.210938 993.328125 Z M 2636.769531 993.328125 "/>
<path fill-rule="nonzero" fill="#303030" fill-opacity="1" d="M 3875.992188 1602.070312 C 4179.613281 1602.070312 4418.765625 1398.90625 4418.765625 1026.316406 C 4418.765625 652.972656 4179.613281 449.058594 3875.992188 449.058594 C 3570.871094 449.058594 3333.222656 652.972656 3333.222656 1026.316406 C 3333.222656 1396.660156 3570.871094 1602.070312 3875.992188 1602.070312 Z M 3875.992188 1332.1875 C 3729.804688 1332.1875 3648.089844 1218.984375 3648.089844 1026.316406 C 3648.089844 832.898438 3729.804688 718.945312 3875.992188 718.945312 C 4022.929688 718.945312 4103.898438 832.898438 4103.898438 1026.316406 C 4103.898438 1218.984375 4022.929688 1332.1875 3875.992188 1332.1875 Z M 3875.992188 1332.1875 "/>
<path fill-rule="nonzero" fill="#303030" fill-opacity="1" d="M 4409.019531 1584.078125 L 4745.511719 1584.078125 L 4867.941406 1392.160156 C 4897.296875 1346.429688 4924.5 1300.699219 4951.707031 1254.96875 C 4978.914062 1300.699219 5006.117188 1346.429688 5034.039062 1392.160156 L 5150.023438 1584.078125 L 5495.824219 1584.078125 L 5119.238281 1004.574219 L 5454.300781 467.050781 L 5127.113281 467.050781 L 5040.484375 612.492188 C 5011.128906 661.21875 4983.210938 710.699219 4956 759.429688 C 4928.792969 710.699219 4901.589844 661.21875 4872.949219 612.492188 L 4787.753906 467.050781 L 4451.976562 467.050781 L 4793.480469 1012.820312 Z M 4409.019531 1584.078125 "/>
<path fill-rule="nonzero" fill="#F37021" fill-opacity="1" d="M 5771.707031 275.882812 C 5771.707031 349.582031 5711.960938 409.328125 5638.265625 409.328125 C 5564.566406 409.328125 5504.820312 349.582031 5504.820312 275.882812 C 5504.820312 202.183594 5564.566406 142.441406 5638.265625 142.441406 C 5711.960938 142.441406 5771.707031 202.183594 5771.707031 275.882812 Z M 5771.707031 275.882812 "/>
</svg>
