<svg xmlns="http://www.w3.org/2000/svg" viewBox="0 0 7877.690 2363.000">
<g fill="#111111" transform="translate(180.000 2113.000) scale(1 -1)">
<path d="M500 0H1052L1536 1490H1084L919 912C869 738 823 565 778 391C731 565 683 738 631 912L458 1490H0Z" transform="translate(0.000 0)"/>
<path d="M80 0H1234V352H496V574H1177V914H496V1138H1234V1490H80Z" transform="translate(1535.000 0)"/>
<path d="M80 0H496V466H682L905 0H1338L1065 556C1210 642 1292 785 1292 970C1292 1289 1069 1490 713 1490H80ZM496 788V1152H682C807 1152 886 1079 886 970C886 861 807 788 682 788Z" transform="translate(2840.000 0)"/>
<path d="M764 -24C1169 -24 1488 247 1488 744C1488 1242 1169 1514 764 1514C357 1514 40 1242 40 744C40 250 357 -24 764 -24ZM764 336C569 336 460 487 460 744C460 1002 569 1154 764 1154C960 1154 1068 1002 1068 744C1068 487 960 336 764 336Z" transform="translate(4225.000 0)"/>
<path d="M0 0H470L641 256C682 317 720 378 758 439C796 378 834 317 873 256L1035 0H1518L992 773L1460 1490H1003L882 1296C841 1231 802 1165 764 1100C726 1165 688 1231 648 1296L529 1490H60L537 762Z" transform="translate(5700.000 0) scale(0.955000 1)"/>
</g>
<circle cx="7519.690" cy="368.000" r="178.000" fill="#ED742F"/>
</svg>